<svg width="602" height="260" viewBox="0 0 602 260" fill="none" xmlns="http://www.w3.org/2000/svg">
<g filter="url(#filter0_b)">
<rect y="20" width="602" height="240" rx="24" fill="#1A1F34"/>
<rect x="0.5" y="20.5" width="601" height="239" rx="23.5" stroke="#8DD9FC"/>
</g>
<!--<path opacity="0.5" d="M345.49 221.16C349.074 221.16 350.066 219.576 350.066 217.88C350.066 216.904 349.65 216.168 348.93 215.8C348.274 215.448 347.25 215.272 346.146 215.096C345.234 214.968 344.05 214.776 343.586 214.552C343.17 214.36 342.962 214.008 342.962 213.416C342.962 212.456 343.906 211.8 345.49 211.8C347.138 211.8 347.986 212.536 347.986 214.088L349.714 214.088C349.714 211.688 348.578 210.312 345.458 210.312C342.706 210.312 341.058 211.656 341.058 213.576C341.058 214.568 341.458 215.288 342.098 215.688C342.674 216.056 343.794 216.296 344.85 216.44C345.762 216.568 346.898 216.712 347.426 216.92C347.922 217.096 348.162 217.432 348.162 218.008C348.162 218.872 347.618 219.672 345.474 219.672C343.458 219.672 342.818 218.744 342.818 217.4L341.09 217.4C341.09 219.32 342.002 221.16 345.49 221.16ZM352.409 221L354.329 221L354.329 218.44L356.297 216.52L360.041 221L362.601 221L357.641 215.288L362.313 210.472L359.929 210.472L354.361 216.312L354.329 216.312L354.329 210.472L352.409 210.472L352.409 221ZM364.582 221L366.486 221L366.486 210.472L364.582 210.472L364.582 221ZM369.251 221L371.171 221L371.171 217.736L373.843 217.736C376.371 217.736 377.747 216.424 377.747 214.136C377.747 211.784 376.211 210.472 373.603 210.472L369.251 210.472L369.251 221ZM371.171 216.376L371.171 212.072L373.539 212.072C375.075 212.072 375.923 212.84 375.923 214.232C375.923 215.672 375.123 216.376 373.731 216.376L371.171 216.376ZM384.424 221L386.328 221L386.328 210.472L384.424 210.472L384.424 221ZM389.093 221L390.901 221L390.885 212.072L390.901 212.072L396.517 221L398.789 221L398.789 210.472L396.981 210.472L397.013 218.472L396.981 218.472L391.973 210.472L389.093 210.472L389.093 221ZM404.043 221L405.963 221L405.963 212.056L409.227 212.056L409.227 210.472L400.779 210.472L400.779 212.056L404.043 212.056L404.043 221ZM411.217 221L413.137 221L413.137 216.824L416.097 216.824C417.505 216.824 417.937 217.4 417.937 218.456L417.937 221L419.873 221L419.873 218.424C419.873 217.16 419.393 216.264 418.113 216.072L418.113 216.04C419.345 215.816 419.937 214.888 419.937 213.528C419.937 211.64 418.545 210.472 415.841 210.472L411.217 210.472L411.217 221ZM413.137 215.56L413.137 212.072L415.825 212.072C417.361 212.072 418.097 212.712 418.097 213.768C418.097 214.888 417.425 215.56 415.873 215.56L413.137 215.56ZM427.492 221.16C430.564 221.16 432.964 219.096 432.964 215.688C432.964 212.344 430.564 210.312 427.492 210.312C424.436 210.312 422.036 212.344 422.036 215.688C422.036 219.096 424.436 221.16 427.492 221.16ZM427.492 219.56C425.556 219.56 423.988 218.104 423.988 215.688C423.988 213.336 425.556 211.912 427.492 211.912C429.444 211.912 431.012 213.336 431.012 215.688C431.012 218.104 429.444 219.56 427.492 219.56Z" fill="white"/>-->
<!--<path d="M249.757 122H251.101V117.072H257.565V122H258.909V111.472H257.565V115.952H251.101V111.472H249.757V122ZM268.467 117.712C268.467 115.36 267.139 113.968 264.883 113.968C262.515 113.968 260.995 115.584 260.995 118.112C260.995 120.56 262.531 122.128 264.915 122.128C266.995 122.128 268.387 121.04 268.467 119.328H267.283C267.171 120.368 266.259 121.04 264.931 121.04C263.379 121.04 262.355 119.984 262.275 118.304H268.467V117.712ZM267.283 117.376H262.323C262.563 115.872 263.507 115.056 264.915 115.056C266.419 115.056 267.283 115.888 267.283 117.28V117.376ZM270.393 122H271.673V118.496C271.673 116.528 272.617 115.12 274.233 115.12C275.529 115.12 276.073 115.872 276.073 117.328C276.073 117.824 276.041 118.224 276.009 118.464H277.177C277.209 118.176 277.257 117.6 277.257 117.056C277.257 115.152 276.313 113.968 274.537 113.968C272.841 113.968 272.025 115.008 271.657 116.384H271.641L271.673 114.096H270.393V122ZM286.327 117.712C286.327 115.36 284.999 113.968 282.743 113.968C280.375 113.968 278.855 115.584 278.855 118.112C278.855 120.56 280.391 122.128 282.775 122.128C284.855 122.128 286.247 121.04 286.327 119.328H285.143C285.031 120.368 284.119 121.04 282.791 121.04C281.239 121.04 280.215 119.984 280.135 118.304H286.327V117.712ZM285.143 117.376H280.183C280.423 115.872 281.367 115.056 282.775 115.056C284.279 115.056 285.143 115.888 285.143 117.28V117.376ZM293.268 125.328C294.772 125.328 295.38 124.592 296.324 122.144L299.46 114.096H298.164L295.62 120.704H295.588L292.708 114.096H291.204L294.756 122H295.092C294.356 123.792 293.972 124.208 293.108 124.208C292.708 124.208 292.324 124.112 292.132 124.048V125.12C292.356 125.216 292.82 125.328 293.268 125.328ZM304.136 122.128C306.584 122.128 308.136 120.544 308.136 118.064C308.136 115.568 306.584 113.968 304.136 113.968C301.688 113.968 300.136 115.568 300.136 118.064C300.136 120.544 301.688 122.128 304.136 122.128ZM304.136 120.976C302.472 120.976 301.416 119.84 301.416 118.064C301.416 116.272 302.472 115.12 304.136 115.12C305.8 115.12 306.856 116.272 306.856 118.064C306.856 119.84 305.8 120.976 304.136 120.976ZM313.298 122.128C315.266 122.128 316.386 121.168 316.722 119.68H316.738C316.738 120.48 316.706 121.472 316.674 122H317.954V114.096H316.674V117.664C316.674 119.744 315.49 120.976 313.65 120.976C312.146 120.976 311.25 120.112 311.25 118.752V114.096H309.97V118.976C309.97 120.896 311.234 122.128 313.298 122.128ZM327.334 122.128C329.526 122.128 330.934 120.848 330.934 118.864H329.75C329.734 120.16 328.806 120.976 327.366 120.976C325.83 120.976 324.838 119.84 324.838 118.048C324.838 116.256 325.862 115.12 327.446 115.12C328.822 115.12 329.702 115.952 329.718 117.264H330.902C330.902 115.248 329.542 113.968 327.43 113.968C325.062 113.968 323.558 115.552 323.558 118.048C323.558 120.544 325.03 122.128 327.334 122.128ZM335.142 122.128C337.11 122.128 338.102 121.344 338.374 120.128H338.39C338.374 120.896 338.342 121.632 338.326 122H339.606V117.184C339.606 115.12 338.262 113.968 335.942 113.968C333.798 113.968 332.454 114.912 332.454 116.48C332.454 116.624 332.47 116.848 332.486 116.96H333.67C333.654 116.832 333.654 116.72 333.654 116.672C333.654 115.6 334.454 115.056 335.91 115.056C337.526 115.056 338.326 115.712 338.326 117.072V117.648H335.11C332.998 117.648 332.214 118.608 332.214 119.728C332.214 121.216 333.35 122.128 335.142 122.128ZM335.398 121.04C334.15 121.04 333.414 120.528 333.414 119.728C333.414 118.96 333.926 118.576 335.222 118.576H338.326V118.688C338.326 120.128 337.19 121.04 335.398 121.04ZM341.768 122H343.048V118.112C343.048 116.224 344.216 115.12 346.024 115.12C347.72 115.12 348.488 115.984 348.488 117.328V122H349.768V117.056C349.768 115.168 348.536 113.968 346.456 113.968C344.568 113.968 343.464 114.848 343.032 116.224H343.016L343.048 114.096H341.768V122ZM358.78 122.128C361.18 122.128 362.46 121.2 362.46 119.648C362.46 119.056 362.204 118.448 361.676 118.144C361.132 117.84 360.524 117.728 359.292 117.6C358.252 117.488 357.468 117.392 357.084 117.232C356.62 117.04 356.572 116.656 356.572 116.336C356.572 115.552 357.452 115.056 358.812 115.056C360.22 115.056 360.924 115.6 360.94 116.784H362.124C362.124 115.008 361.132 113.968 358.764 113.968C356.652 113.968 355.292 114.928 355.292 116.416C355.292 116.992 355.516 117.568 355.948 117.888C356.428 118.24 357.212 118.4 358.508 118.512C359.484 118.608 360.316 118.704 360.684 118.88C361.084 119.072 361.18 119.376 361.18 119.696C361.18 120.544 360.396 121.04 358.764 121.04C357.116 121.04 356.476 120.416 356.476 119.36H355.292C355.292 120.88 356.124 122.128 358.78 122.128ZM371.53 117.712C371.53 115.36 370.202 113.968 367.946 113.968C365.578 113.968 364.058 115.584 364.058 118.112C364.058 120.56 365.594 122.128 367.978 122.128C370.058 122.128 371.45 121.04 371.53 119.328H370.346C370.234 120.368 369.322 121.04 367.994 121.04C366.442 121.04 365.418 119.984 365.338 118.304H371.53V117.712ZM370.346 117.376H365.386C365.626 115.872 366.57 115.056 367.978 115.056C369.482 115.056 370.346 115.888 370.346 117.28V117.376ZM380.608 117.712C380.608 115.36 379.28 113.968 377.024 113.968C374.656 113.968 373.136 115.584 373.136 118.112C373.136 120.56 374.672 122.128 377.056 122.128C379.136 122.128 380.528 121.04 380.608 119.328H379.424C379.312 120.368 378.4 121.04 377.072 121.04C375.52 121.04 374.496 119.984 374.416 118.304H380.608V117.712ZM379.424 117.376H374.464C374.704 115.872 375.648 115.056 377.056 115.056C378.56 115.056 379.424 115.888 379.424 117.28V117.376ZM386.382 122H391.054C393.63 122 394.654 120.816 394.654 118.96C394.654 117.584 393.854 116.624 392.398 116.496V116.48C393.646 116.32 394.254 115.44 394.254 114.224C394.254 112.544 393.118 111.472 390.67 111.472H386.382V122ZM387.726 116.096V112.656H390.654C392.318 112.656 393.006 113.344 393.006 114.4C393.006 115.44 392.334 116.096 390.846 116.096H387.726ZM387.726 120.816V117.088H390.942C392.478 117.088 393.342 117.776 393.342 118.832C393.342 120.048 392.814 120.816 391.006 120.816H387.726ZM396.613 113.088H397.989V111.472H396.613V113.088ZM396.661 122H397.941V114.096H396.661V122ZM403.404 122.064C404.044 122.064 404.508 121.968 404.748 121.872V120.784C404.572 120.848 404.06 120.944 403.516 120.944C402.332 120.944 401.948 120.224 401.948 119.024V115.216H404.812V114.096H401.948V112.304H400.86L400.796 113.552C400.764 113.968 400.668 114.096 400.412 114.096H399.356V115.216H400.668V119.104C400.668 120.848 401.484 122.064 403.404 122.064ZM409.709 122.128C411.901 122.128 413.309 120.848 413.309 118.864H412.125C412.109 120.16 411.181 120.976 409.741 120.976C408.205 120.976 407.213 119.84 407.213 118.048C407.213 116.256 408.237 115.12 409.821 115.12C411.197 115.12 412.077 115.952 412.093 117.264H413.277C413.277 115.248 411.917 113.968 409.805 113.968C407.437 113.968 405.933 115.552 405.933 118.048C405.933 120.544 407.405 122.128 409.709 122.128ZM418.995 122.128C421.443 122.128 422.995 120.544 422.995 118.064C422.995 115.568 421.443 113.968 418.995 113.968C416.547 113.968 414.995 115.568 414.995 118.064C414.995 120.544 416.547 122.128 418.995 122.128ZM418.995 120.976C417.331 120.976 416.275 119.84 416.275 118.064C416.275 116.272 417.331 115.12 418.995 115.12C420.659 115.12 421.715 116.272 421.715 118.064C421.715 119.84 420.659 120.976 418.995 120.976ZM424.941 113.088H426.317V111.472H424.941V113.088ZM424.989 122H426.269V114.096H424.989V122ZM428.597 122H429.877V118.112C429.877 116.224 431.045 115.12 432.853 115.12C434.549 115.12 435.317 115.984 435.317 117.328V122H436.597V117.056C436.597 115.168 435.365 113.968 433.285 113.968C431.397 113.968 430.293 114.848 429.861 116.224H429.845L429.877 114.096H428.597V122ZM442.52 125.168H443.8V121.984C443.8 121.616 443.768 120.784 443.752 120.256H443.768C444.104 121.328 445.224 122.128 446.904 122.128C449.224 122.128 450.648 120.48 450.648 117.92C450.648 115.504 449.24 113.968 446.936 113.968C445.224 113.968 444.104 114.816 443.784 116.128H443.768L443.8 114.096H442.52V125.168ZM446.728 120.976C444.936 120.976 443.8 120.016 443.8 118.512V118.032C443.832 116.256 444.968 115.12 446.696 115.12C448.36 115.12 449.368 116.224 449.368 117.936C449.368 119.792 448.344 120.976 446.728 120.976ZM452.565 122H453.845V118.496C453.845 116.528 454.789 115.12 456.405 115.12C457.701 115.12 458.245 115.872 458.245 117.328C458.245 117.824 458.213 118.224 458.181 118.464H459.349C459.381 118.176 459.429 117.6 459.429 117.056C459.429 115.152 458.485 113.968 456.709 113.968C455.013 113.968 454.197 115.008 453.829 116.384H453.813L453.845 114.096H452.565V122ZM461.379 113.088H462.755V111.472H461.379V113.088ZM461.427 122H462.707V114.096H461.427V122ZM468.49 122.128C470.682 122.128 472.09 120.848 472.09 118.864H470.906C470.89 120.16 469.962 120.976 468.522 120.976C466.986 120.976 465.994 119.84 465.994 118.048C465.994 116.256 467.018 115.12 468.602 115.12C469.978 115.12 470.858 115.952 470.874 117.264H472.058C472.058 115.248 470.698 113.968 468.586 113.968C466.218 113.968 464.714 115.552 464.714 118.048C464.714 120.544 466.186 122.128 468.49 122.128ZM481.249 117.712C481.249 115.36 479.921 113.968 477.665 113.968C475.297 113.968 473.777 115.584 473.777 118.112C473.777 120.56 475.313 122.128 477.697 122.128C479.777 122.128 481.169 121.04 481.249 119.328H480.065C479.953 120.368 479.041 121.04 477.713 121.04C476.161 121.04 475.137 119.984 475.057 118.304H481.249V117.712ZM480.065 117.376H475.105C475.345 115.872 476.289 115.056 477.697 115.056C479.201 115.056 480.065 115.888 480.065 117.28V117.376ZM490.318 122.128C492.51 122.128 493.918 120.848 493.918 118.864H492.734C492.718 120.16 491.79 120.976 490.35 120.976C488.814 120.976 487.822 119.84 487.822 118.048C487.822 116.256 488.846 115.12 490.43 115.12C491.806 115.12 492.686 115.952 492.702 117.264H493.886C493.886 115.248 492.526 113.968 490.414 113.968C488.046 113.968 486.542 115.552 486.542 118.048C486.542 120.544 488.014 122.128 490.318 122.128ZM496.005 122H497.285V118.272C497.285 116.272 498.453 115.12 500.261 115.12C501.957 115.12 502.725 115.984 502.725 117.328V122H504.005V117.056C504.005 115.168 502.773 113.968 500.693 113.968C498.805 113.968 497.701 114.864 497.269 116.24H497.253C497.253 115.952 497.285 115.008 497.285 114.576V110.912H496.005V122ZM508.767 122.128C510.735 122.128 511.727 121.344 511.999 120.128H512.015C511.999 120.896 511.967 121.632 511.951 122H513.231V117.184C513.231 115.12 511.887 113.968 509.567 113.968C507.423 113.968 506.079 114.912 506.079 116.48C506.079 116.624 506.095 116.848 506.111 116.96H507.295C507.279 116.832 507.279 116.72 507.279 116.672C507.279 115.6 508.079 115.056 509.535 115.056C511.151 115.056 511.951 115.712 511.951 117.072V117.648H508.735C506.623 117.648 505.839 118.608 505.839 119.728C505.839 121.216 506.975 122.128 508.767 122.128ZM509.023 121.04C507.775 121.04 507.039 120.528 507.039 119.728C507.039 118.96 507.551 118.576 508.847 118.576H511.951V118.688C511.951 120.128 510.815 121.04 509.023 121.04ZM515.393 122H516.673V118.112C516.673 116.224 517.841 115.12 519.649 115.12C521.345 115.12 522.113 115.984 522.113 117.328V122H523.393V117.056C523.393 115.168 522.161 113.968 520.081 113.968C518.193 113.968 517.089 114.848 516.657 116.224H516.641L516.673 114.096H515.393V122ZM530.862 120.912H528.302C527.63 120.912 527.294 120.576 527.294 120.048C527.294 119.744 527.39 119.504 527.518 119.376C527.95 119.52 528.43 119.6 528.974 119.6C531.038 119.6 532.35 118.496 532.35 116.784C532.35 116.144 532.174 115.6 531.838 115.152C531.71 114.832 531.63 114.528 531.63 114.288C531.63 113.824 531.918 113.584 532.446 113.584C532.702 113.584 532.894 113.632 533.006 113.68V112.656C532.862 112.608 532.622 112.56 532.286 112.56C531.39 112.56 530.83 112.976 530.83 113.616C530.83 113.968 530.958 114.272 531.134 114.496V114.512C530.574 114.16 529.838 113.968 528.974 113.968C526.926 113.968 525.614 115.072 525.614 116.784C525.614 117.744 526.03 118.528 526.766 119.008V119.04C526.462 119.216 526.206 119.68 526.206 120.272C526.206 120.816 526.446 121.28 526.846 121.584V121.6C525.854 121.6 525.23 122.256 525.23 123.04C525.23 124.544 526.782 125.392 529.39 125.392C531.886 125.392 533.374 124.384 533.374 122.816C533.374 121.616 532.462 120.912 530.862 120.912ZM528.974 115.056C530.27 115.056 531.102 115.728 531.102 116.784C531.102 117.84 530.27 118.512 528.974 118.512C527.678 118.512 526.862 117.84 526.862 116.784C526.862 115.728 527.678 115.056 528.974 115.056ZM529.374 124.304C527.63 124.304 526.51 123.888 526.51 123.008C526.51 122.288 527.214 122 528.318 122H530.67C531.63 122 532.094 122.32 532.094 122.944C532.094 123.696 531.406 124.304 529.374 124.304ZM541.889 117.712C541.889 115.36 540.561 113.968 538.305 113.968C535.937 113.968 534.417 115.584 534.417 118.112C534.417 120.56 535.953 122.128 538.337 122.128C540.417 122.128 541.809 121.04 541.889 119.328H540.705C540.593 120.368 539.681 121.04 538.353 121.04C536.801 121.04 535.777 119.984 535.697 118.304H541.889V117.712ZM540.705 117.376H535.745C535.985 115.872 536.929 115.056 538.337 115.056C539.841 115.056 540.705 115.888 540.705 117.28V117.376ZM546.983 122.128C549.383 122.128 550.663 121.2 550.663 119.648C550.663 119.056 550.407 118.448 549.879 118.144C549.335 117.84 548.727 117.728 547.495 117.6C546.455 117.488 545.671 117.392 545.287 117.232C544.823 117.04 544.775 116.656 544.775 116.336C544.775 115.552 545.655 115.056 547.015 115.056C548.423 115.056 549.127 115.6 549.143 116.784H550.327C550.327 115.008 549.335 113.968 546.967 113.968C544.855 113.968 543.495 114.928 543.495 116.416C543.495 116.992 543.719 117.568 544.151 117.888C544.631 118.24 545.415 118.4 546.711 118.512C547.687 118.608 548.519 118.704 548.887 118.88C549.287 119.072 549.383 119.376 549.383 119.696C549.383 120.544 548.599 121.04 546.967 121.04C545.319 121.04 544.679 120.416 544.679 119.36H543.495C543.495 120.88 544.327 122.128 546.983 122.128ZM552.805 122H554.181V120.176H552.805V122ZM272.278 145H273.622V135.672H277.11V134.472H268.79V135.672H272.278V145ZM278.684 145H279.964V141.272C279.964 139.272 281.132 138.12 282.94 138.12C284.636 138.12 285.404 138.984 285.404 140.328V145H286.684V140.056C286.684 138.168 285.452 136.968 283.372 136.968C281.484 136.968 280.38 137.864 279.948 139.24H279.932C279.932 138.952 279.964 138.008 279.964 137.576V133.912H278.684V145ZM288.871 136.088H290.247V134.472H288.871V136.088ZM288.919 145H290.199V137.096H288.919V145ZM295.694 145.128C298.094 145.128 299.374 144.2 299.374 142.648C299.374 142.056 299.118 141.448 298.59 141.144C298.046 140.84 297.438 140.728 296.206 140.6C295.166 140.488 294.382 140.392 293.998 140.232C293.534 140.04 293.486 139.656 293.486 139.336C293.486 138.552 294.366 138.056 295.726 138.056C297.134 138.056 297.838 138.6 297.854 139.784H299.038C299.038 138.008 298.046 136.968 295.678 136.968C293.566 136.968 292.206 137.928 292.206 139.416C292.206 139.992 292.43 140.568 292.862 140.888C293.342 141.24 294.126 141.4 295.422 141.512C296.398 141.608 297.23 141.704 297.598 141.88C297.998 142.072 298.094 142.376 298.094 142.696C298.094 143.544 297.31 144.04 295.678 144.04C294.03 144.04 293.39 143.416 293.39 142.36H292.206C292.206 143.88 293.038 145.128 295.694 145.128ZM306.595 145H308.115L310.227 138.696H310.275L312.323 145H313.891L316.243 137.096H315.011L313.123 143.656H313.091L310.963 137.096H309.699L307.491 143.656H307.459L305.635 137.096H304.243L306.595 145ZM317.777 136.088H319.153V134.472H317.777V136.088ZM317.825 145H319.105V137.096H317.825V145ZM321.513 145H322.793V133.912H321.513V145ZM325.2 145H326.48V133.912H325.2V145ZM332.575 145H333.855V141.272C333.855 139.272 335.023 138.12 336.831 138.12C338.527 138.12 339.295 138.984 339.295 140.328V145H340.575V140.056C340.575 138.168 339.343 136.968 337.263 136.968C335.375 136.968 334.271 137.864 333.839 139.24H333.823C333.823 138.952 333.855 138.008 333.855 137.576V133.912H332.575V145ZM349.881 140.712C349.881 138.36 348.553 136.968 346.297 136.968C343.929 136.968 342.409 138.584 342.409 141.112C342.409 143.56 343.945 145.128 346.329 145.128C348.409 145.128 349.801 144.04 349.881 142.328H348.697C348.585 143.368 347.673 144.04 346.345 144.04C344.793 144.04 343.769 142.984 343.689 141.304H349.881V140.712ZM348.697 140.376H343.737C343.977 138.872 344.921 138.056 346.329 138.056C347.833 138.056 348.697 138.888 348.697 140.28V140.376ZM351.888 145H353.168V133.912H351.888V145ZM355.575 148.168H356.855V144.984C356.855 144.616 356.823 143.784 356.807 143.256H356.823C357.159 144.328 358.279 145.128 359.959 145.128C362.279 145.128 363.703 143.48 363.703 140.92C363.703 138.504 362.295 136.968 359.991 136.968C358.279 136.968 357.159 137.816 356.839 139.128H356.823L356.855 137.096H355.575V148.168ZM359.783 143.976C357.991 143.976 356.855 143.016 356.855 141.512V141.032C356.887 139.256 358.023 138.12 359.751 138.12C361.415 138.12 362.423 139.224 362.423 140.936C362.423 142.792 361.399 143.976 359.783 143.976ZM370.636 148.328C372.14 148.328 372.748 147.592 373.692 145.144L376.828 137.096H375.532L372.988 143.704H372.956L370.076 137.096H368.572L372.124 145H372.46C371.724 146.792 371.34 147.208 370.476 147.208C370.076 147.208 369.692 147.112 369.5 147.048V148.12C369.724 148.216 370.188 148.328 370.636 148.328ZM381.503 145.128C383.951 145.128 385.503 143.544 385.503 141.064C385.503 138.568 383.951 136.968 381.503 136.968C379.055 136.968 377.503 138.568 377.503 141.064C377.503 143.544 379.055 145.128 381.503 145.128ZM381.503 143.976C379.839 143.976 378.783 142.84 378.783 141.064C378.783 139.272 379.839 138.12 381.503 138.12C383.167 138.12 384.223 139.272 384.223 141.064C384.223 142.84 383.167 143.976 381.503 143.976ZM390.665 145.128C392.633 145.128 393.753 144.168 394.089 142.68H394.105C394.105 143.48 394.073 144.472 394.041 145H395.321V137.096H394.041V140.664C394.041 142.744 392.857 143.976 391.017 143.976C389.513 143.976 388.617 143.112 388.617 141.752V137.096H387.337V141.976C387.337 143.896 388.601 145.128 390.665 145.128ZM404.381 145.064C405.021 145.064 405.485 144.968 405.725 144.872V143.784C405.549 143.848 405.037 143.944 404.493 143.944C403.309 143.944 402.925 143.224 402.925 142.024V138.216H405.789V137.096H402.925V135.304H401.837L401.773 136.552C401.741 136.968 401.645 137.096 401.389 137.096H400.333V138.216H401.645V142.104C401.645 143.848 402.461 145.064 404.381 145.064ZM410.909 145.128C413.357 145.128 414.909 143.544 414.909 141.064C414.909 138.568 413.357 136.968 410.909 136.968C408.461 136.968 406.909 138.568 406.909 141.064C406.909 143.544 408.461 145.128 410.909 145.128ZM410.909 143.976C409.245 143.976 408.189 142.84 408.189 141.064C408.189 139.272 409.245 138.12 410.909 138.12C412.573 138.12 413.629 139.272 413.629 141.064C413.629 142.84 412.573 143.976 410.909 143.976ZM420.511 145H421.791V141.08C421.791 139.208 422.719 138.12 424.175 138.12C425.439 138.12 426.095 138.936 426.095 140.216V145H427.375V141.016C427.375 139.192 428.303 138.12 429.759 138.12C431.023 138.12 431.663 138.952 431.663 140.264V145H432.943V139.992C432.943 138.152 431.903 136.968 430.111 136.968C428.623 136.968 427.599 137.784 427.327 139.048H427.311C427.119 137.784 426.095 136.968 424.543 136.968C423.119 136.968 422.111 137.832 421.775 139.192H421.759L421.791 137.096H420.511V145ZM437.712 145.128C439.68 145.128 440.672 144.344 440.944 143.128H440.96C440.944 143.896 440.912 144.632 440.896 145H442.176V140.184C442.176 138.12 440.832 136.968 438.512 136.968C436.368 136.968 435.024 137.912 435.024 139.48C435.024 139.624 435.04 139.848 435.056 139.96H436.24C436.224 139.832 436.224 139.72 436.224 139.672C436.224 138.6 437.024 138.056 438.48 138.056C440.096 138.056 440.896 138.712 440.896 140.072V140.648H437.68C435.568 140.648 434.784 141.608 434.784 142.728C434.784 144.216 435.92 145.128 437.712 145.128ZM437.968 144.04C436.72 144.04 435.984 143.528 435.984 142.728C435.984 141.96 436.496 141.576 437.792 141.576H440.896V141.688C440.896 143.128 439.76 144.04 437.968 144.04ZM444.419 145H445.699V142.92L447.507 141.352L450.867 145H452.691L448.467 140.536L452.467 137.096H450.675L445.715 141.512H445.699V133.912H444.419V145ZM460.803 140.712C460.803 138.36 459.475 136.968 457.219 136.968C454.851 136.968 453.331 138.584 453.331 141.112C453.331 143.56 454.867 145.128 457.251 145.128C459.331 145.128 460.723 144.04 460.803 142.328H459.619C459.507 143.368 458.595 144.04 457.267 144.04C455.715 144.04 454.691 142.984 454.611 141.304H460.803V140.712ZM459.619 140.376H454.659C454.899 138.872 455.843 138.056 457.251 138.056C458.755 138.056 459.619 138.888 459.619 140.28V140.376ZM467.745 148.328C469.249 148.328 469.857 147.592 470.801 145.144L473.937 137.096H472.641L470.097 143.704H470.065L467.185 137.096H465.681L469.233 145H469.569C468.833 146.792 468.449 147.208 467.585 147.208C467.185 147.208 466.801 147.112 466.609 147.048V148.12C466.833 148.216 467.297 148.328 467.745 148.328ZM478.613 145.128C481.061 145.128 482.613 143.544 482.613 141.064C482.613 138.568 481.061 136.968 478.613 136.968C476.164 136.968 474.613 138.568 474.613 141.064C474.613 143.544 476.164 145.128 478.613 145.128ZM478.613 143.976C476.949 143.976 475.893 142.84 475.893 141.064C475.893 139.272 476.949 138.12 478.613 138.12C480.277 138.12 481.333 139.272 481.333 141.064C481.333 142.84 480.277 143.976 478.613 143.976ZM487.774 145.128C489.742 145.128 490.862 144.168 491.198 142.68H491.214C491.214 143.48 491.182 144.472 491.15 145H492.43V137.096H491.15V140.664C491.15 142.744 489.966 143.976 488.126 143.976C486.622 143.976 485.726 143.112 485.726 141.752V137.096H484.446V141.976C484.446 143.896 485.71 145.128 487.774 145.128ZM494.667 145H495.947V141.496C495.947 139.528 496.891 138.12 498.507 138.12C499.803 138.12 500.347 138.872 500.347 140.328C500.347 140.824 500.315 141.224 500.283 141.464H501.451C501.483 141.176 501.531 140.6 501.531 140.056C501.531 138.152 500.587 136.968 498.811 136.968C497.115 136.968 496.299 138.008 495.931 139.384H495.915L495.947 137.096H494.667V145ZM511.712 145.128C513.92 145.128 515.344 143.48 515.344 140.904C515.344 138.504 513.952 136.968 511.68 136.968C509.984 136.968 508.832 137.784 508.48 139.048H508.464C508.48 138.664 508.496 138.024 508.496 137.704V133.912H507.216V145H508.496C508.464 144.584 508.432 143.8 508.432 143.176H508.448C508.784 144.36 509.92 145.128 511.712 145.128ZM511.392 143.976C509.632 143.976 508.496 143 508.496 141.48V141.064C508.496 139.272 509.648 138.12 511.44 138.12C513.072 138.12 514.064 139.224 514.064 140.936C514.064 142.792 513.024 143.976 511.392 143.976ZM524.413 140.712C524.413 138.36 523.085 136.968 520.829 136.968C518.461 136.968 516.941 138.584 516.941 141.112C516.941 143.56 518.477 145.128 520.861 145.128C522.941 145.128 524.333 144.04 524.413 142.328H523.229C523.117 143.368 522.205 144.04 520.877 144.04C519.325 144.04 518.301 142.984 518.221 141.304H524.413V140.712ZM523.229 140.376H518.269C518.509 138.872 519.453 138.056 520.861 138.056C522.365 138.056 523.229 138.888 523.229 140.28V140.376ZM529.475 145.064C530.115 145.064 530.579 144.968 530.819 144.872V143.784C530.643 143.848 530.131 143.944 529.587 143.944C528.403 143.944 528.019 143.224 528.019 142.024V138.216H530.883V137.096H528.019V135.304H526.931L526.867 136.552C526.835 136.968 526.739 137.096 526.483 137.096H525.427V138.216H526.739V142.104C526.739 143.848 527.555 145.064 529.475 145.064ZM532.844 145H534.22V143.176H532.844V145Z" fill="white"/>-->
<!--<path d="M378.055 95.192C380.503 95.192 382.071 94.376 382.519 92.856H382.535C382.519 93.656 382.471 94.584 382.455 95H384.279V89.736H377.847V91.128H382.087V91.176C382.087 92.152 381.111 93.56 378.295 93.56C375.271 93.56 373.959 91.88 373.959 89.88C373.959 87.752 375.399 86.024 378.311 86.024C381.143 86.024 382.151 87.24 382.151 88.344C382.151 88.408 382.151 88.472 382.135 88.568H384.135C384.151 88.424 384.151 88.328 384.151 88.264C384.151 86.344 382.663 84.28 378.263 84.28C373.847 84.28 371.719 86.888 371.719 89.864C371.719 92.6 373.527 95.192 378.055 95.192ZM386.036 95H388.084V92.008C388.084 90.248 389.236 88.616 391.332 88.616C393.028 88.616 393.588 89.48 393.588 91.176C393.588 91.464 393.572 91.8 393.556 91.992H395.476C395.492 91.736 395.524 91.192 395.524 90.584C395.524 88.376 394.532 86.936 391.924 86.936C389.7 86.936 388.58 88.088 388.084 89.512H388.052L388.084 87.096H386.036V95ZM400.985 95.144C403.641 95.144 404.777 94.36 405.129 93.096H405.145C405.129 93.64 405.097 94.456 405.049 95H407.097V90.52C407.097 88.312 405.401 86.936 402.041 86.936C398.745 86.936 397.305 88.008 397.305 89.544C397.305 89.576 397.305 89.688 397.321 89.832H399.273C399.257 89.736 399.257 89.688 399.257 89.64C399.257 88.968 399.929 88.392 401.993 88.392C404.169 88.392 405.049 89.032 405.049 90.328V90.488H400.297C398.313 90.488 397.049 91.128 397.049 92.664C397.049 93.912 398.105 95.144 400.985 95.144ZM401.385 93.704C399.369 93.704 398.921 93.112 398.921 92.584C398.921 91.832 399.577 91.704 400.777 91.704H405.049V91.752C405.049 92.68 403.913 93.704 401.385 93.704ZM408.755 98.168H410.803V95C410.803 94.616 410.755 93.816 410.723 93.32H410.739C411.331 94.488 412.483 95.16 414.819 95.16C417.843 95.16 419.763 93.688 419.763 90.92C419.763 88.552 418.019 86.936 414.755 86.936C412.595 86.936 411.267 87.704 410.787 89.096H410.771L410.803 87.096H408.755V98.168ZM414.451 93.56C412.003 93.56 410.803 92.424 410.803 91.336V91.176C410.835 89.704 412.147 88.536 414.435 88.536C416.659 88.536 417.731 89.56 417.731 90.968C417.731 92.712 416.611 93.56 414.451 93.56ZM421.349 95H423.397V91.448C423.397 89.528 425.141 88.616 427.061 88.616C429.445 88.616 430.149 89.544 430.149 90.968V95H432.197V90.424C432.197 88.456 431.045 86.936 427.829 86.936C425.285 86.936 423.989 87.8 423.397 89.416H423.365C423.381 88.776 423.397 88.216 423.397 87.736V83.8H421.349V95Z" fill="white"/>-->
<rect x="232" y="53" width="52" height="6" rx="3" fill="#F7931A"/>
<rect opacity="0.5" x="304" y="53" width="52" height="6" rx="3" fill="#F7931A"/>
<rect opacity="0.5" x="376" y="53" width="52" height="6" rx="3" fill="#F7931A"/>
<rect opacity="0.5" x="448" y="53" width="52" height="6" rx="3" fill="#F7931A"/>
<rect opacity="0.5" x="520" y="53" width="52" height="6" rx="3" fill="#F7931A"/>
<!--<g filter="url(#filter1_b)">-->
<!--<rect x="457" y="192" width="124" height="48" rx="8" fill="black" fill-opacity="0.5"/>-->
<!--<rect x="457.5" y="192.5" width="123" height="47" rx="7.5" stroke="white"/>-->
<!--</g>-->
<!--<path d="M498.381 221L500.189 221L500.173 212.072L500.189 212.072L505.805 221L508.077 221L508.077 210.472L506.269 210.472L506.301 218.472L506.269 218.472L501.261 210.472L498.381 210.472L498.381 221ZM511.091 221L518.435 221L518.435 219.4L513.011 219.4L513.011 216.328L517.203 216.328L517.203 215.08L513.011 215.08L513.011 212.072L518.291 212.072L518.291 210.472L511.091 210.472L511.091 221ZM520.175 221L522.447 221L525.135 216.888L527.855 221L530.255 221L526.447 215.592L530.127 210.472L527.951 210.472L525.375 214.424L522.719 210.472L520.303 210.472L523.999 215.608L520.175 221ZM535.133 221L537.053 221L537.053 212.056L540.317 212.056L540.317 210.472L531.869 210.472L531.869 212.056L535.133 212.056L535.133 221Z" fill="white"/>-->
<path d="M300.293 1.41317C300.684 1.02299 301.316 1.02299 301.707 1.41317L320.6 20.2926C321.231 20.9225 320.785 22 319.893 22H282.107C281.215 22 280.769 20.9225 281.4 20.2926L300.293 1.41317Z" fill="#1A1F34" stroke="#8DD9FC"/>
<path d="M322.739 23H279.5L279.5 21H281.335L283.411 19H318.595L320.667 21H322.739V23Z" fill="#1A1F34"/>
<path d="M93.3001 237.651C127.269 237.651 154.807 221.752 154.807 202.14C154.807 182.528 127.269 166.63 93.3001 166.63C59.3309 166.63 31.7935 182.528 31.7935 202.14C31.7935 221.752 59.3309 237.651 93.3001 237.651Z" fill="#E3DFEA"/>
<path d="M37.9021 232.494L27.5708 238.457L73.0666 166.695L99.9265 178.049L138.733 116.838L149.692 121.469L184.385 66.7429L194.717 60.7798L149.692 131.801L138.733 127.17L99.9265 188.377L73.0666 177.026L37.9021 232.494Z" fill="#E3DFEA"/>
<path d="M40.5611 234.035L30.2324 240L75.7282 168.238L102.588 179.589L141.392 118.382L152.351 123.013L187.047 68.286L197.378 62.3203L152.351 133.344L141.392 128.71L102.588 189.92L75.7282 178.567L40.5611 234.035Z" fill="url(#paint0_linear)"/>
<path d="M187.146 56.4351L197.378 62.3201L187.047 68.2858L152.351 123.012L141.392 118.381L102.588 179.589L75.7283 168.238L30.2325 240L20 234.115L65.4958 162.35L92.3557 173.704L131.16 112.494L142.118 117.127L176.814 62.3981L187.146 56.4351Z" fill="url(#paint1_linear)"/>
<path d="M146.497 80.0164V91.7007L197.355 62.2625V112.915L208.776 106.398V58.7008V44.1183V44.061L146.497 80.0164Z" fill="url(#paint2_linear)"/>
<path d="M146.513 80.0296L139.03 75.8982L201.31 40L208.792 44.1315L146.513 80.0296Z" fill="url(#paint3_linear)"/>
<path d="M146.497 91.6749L139.03 87.5513V75.9009L146.497 80.0219V91.6749Z" fill="url(#paint4_linear)"/>
<path d="M197.358 112.709L189.683 108.5V74.2719L197.358 62.3535V112.709Z" fill="url(#paint5_linear)"/>
<path d="M125.53 95.7386L126.659 94.1073L120.902 90.837C120.795 90.7745 120.686 90.7121 120.576 90.6522L120.571 90.6496C115.506 87.884 108.127 88.5605 99.911 93.3034C84.6391 102.12 72.2603 121.649 72.2603 136.921C72.2603 143.331 74.4405 147.973 78.101 150.548H78.1036C78.6474 150.931 79.2223 151.267 79.8285 151.558L84.829 154.482L85.9321 152.89C90.035 152.929 94.8117 151.553 99.911 148.608C115.183 139.79 127.562 120.262 127.562 104.99C127.564 101.304 126.841 98.1998 125.53 95.7386Z" fill="#FF9D4D"/>
<path d="M113.718 89.4662C116.213 89.4662 118.448 89.997 120.36 91.0402L120.384 91.0533C120.483 91.1079 120.581 91.1651 120.683 91.2249L126.019 94.256L125.166 95.4866L125.012 95.7077L125.14 95.9471C126.454 98.4161 127.122 101.457 127.122 104.993C127.122 120.099 114.816 139.494 99.6925 148.225C94.908 150.988 90.2093 152.448 86.1091 152.448C86.0518 152.448 85.9972 152.448 85.9399 152.448L85.7058 152.445L85.5731 152.638L84.7041 153.895L80.0575 151.178L80.0419 151.171L80.0263 151.163C79.4435 150.882 78.8842 150.557 78.3638 150.19L78.343 150.174C75.2704 148.002 73.3711 144.37 72.856 139.668C72.8352 139.494 72.8196 139.317 72.804 139.138C72.7415 138.43 72.7103 137.683 72.7103 136.924C72.7103 135.628 72.8014 134.27 72.9861 132.886C73.0043 132.732 73.0277 132.576 73.0485 132.42C73.3139 130.596 73.738 128.695 74.313 126.767C74.3546 126.629 74.3962 126.488 74.443 126.337C74.9764 124.607 75.6346 122.838 76.4047 121.072C76.462 120.936 76.5218 120.804 76.5816 120.668C77.3179 119.008 78.1583 117.341 79.0819 115.707C79.1521 115.582 79.2223 115.455 79.2978 115.327C80.2084 113.737 81.2075 112.158 82.269 110.636C82.3522 110.517 82.4355 110.397 82.5239 110.275C83.5984 108.75 84.751 107.259 85.9503 105.844C86.0466 105.729 86.1429 105.618 86.2392 105.506C87.4828 104.054 88.794 102.657 90.1391 101.353C90.2484 101.247 90.3602 101.14 90.4695 101.036C91.9082 99.6648 93.4042 98.3744 94.921 97.2062C95.0459 97.11 95.1733 97.0138 95.3008 96.9175C96.8904 95.7155 98.5191 94.6306 100.145 93.694C100.252 93.6315 100.359 93.5717 100.468 93.5092C100.616 93.4234 100.764 93.3401 100.913 93.2595C103.036 92.0939 105.138 91.1808 107.167 90.5485L107.23 90.5277C107.422 90.4679 107.615 90.4107 107.807 90.356C109.86 89.7654 111.853 89.4662 113.718 89.4662ZM113.718 89.0239C111.832 89.0239 109.805 89.3205 107.674 89.9319C107.479 89.9865 107.284 90.0464 107.089 90.1062C105.042 90.741 102.898 91.6595 100.689 92.8718C100.538 92.9551 100.39 93.0383 100.239 93.1242C100.13 93.184 100.023 93.2465 99.9136 93.3089C98.2433 94.2715 96.6095 95.3642 95.0225 96.5636C94.895 96.6599 94.7675 96.7562 94.64 96.855C93.0946 98.0466 91.596 99.3396 90.1521 100.716C90.0402 100.823 89.931 100.929 89.8191 101.036C88.4532 102.36 87.1393 103.76 85.8905 105.219C85.7942 105.334 85.6954 105.448 85.5991 105.563C84.3842 106.999 83.2316 108.49 82.1519 110.025C82.066 110.144 81.9801 110.267 81.8969 110.389C80.825 111.929 79.8259 113.508 78.9049 115.114C78.8295 115.241 78.7567 115.369 78.6864 115.499C77.7576 117.146 76.9147 118.816 76.168 120.497C76.1056 120.632 76.0457 120.77 75.9884 120.905C75.2183 122.674 74.5549 124.449 74.0112 126.215C73.967 126.361 73.9227 126.507 73.8811 126.652C73.3087 128.58 72.8768 130.492 72.6036 132.366C72.5802 132.524 72.5594 132.683 72.5386 132.839C72.3565 134.228 72.2603 135.597 72.2603 136.931C72.2603 137.709 72.2914 138.459 72.3565 139.185C72.3721 139.367 72.3903 139.549 72.4085 139.728C72.9549 144.703 74.9972 148.374 78.101 150.559H78.1036C78.6474 150.942 79.2223 151.277 79.8285 151.569L84.829 154.493L85.9321 152.898C85.9893 152.898 86.0466 152.898 86.1065 152.898C90.1703 152.898 94.8845 151.519 99.911 148.616C115.183 139.799 127.562 120.27 127.562 104.998C127.562 101.309 126.839 98.2053 125.527 95.7441L126.656 94.1129L120.899 90.8425C120.792 90.7801 120.683 90.7176 120.574 90.6578L120.568 90.6552C118.609 89.5781 116.294 89.0239 113.718 89.0239Z" fill="#FFE840"/>
<path d="M122.159 136.674C134.364 120.447 136.816 101.695 127.636 94.7904C118.456 87.8859 101.12 95.4436 88.9151 111.671C76.7101 127.898 74.2577 146.65 83.4376 153.555C92.6175 160.459 109.954 152.902 122.159 136.674Z" fill="#FFD071"/>
<path d="M122.159 136.674C134.364 120.447 136.816 101.695 127.636 94.7904C118.456 87.8859 101.12 95.4436 88.9151 111.671C76.7101 127.898 74.2577 146.65 83.4376 153.555C92.6175 160.459 109.954 152.902 122.159 136.674Z" fill="#FFE840"/>
<path d="M106.228 148.353C99.7759 152.078 93.7088 153.067 89.1454 151.139C84.5821 149.211 82.0688 144.593 82.0688 138.141C82.0688 131.689 84.5821 124.17 89.1454 116.971C93.7088 109.772 99.7759 103.757 106.228 100.031C112.68 96.3058 118.748 95.3172 123.311 97.2451C127.874 99.1729 130.387 103.791 130.387 110.243C130.387 116.695 127.874 124.214 123.311 131.413C118.748 138.612 112.683 144.627 106.228 148.353ZM106.228 101.363C93.6385 108.633 83.3983 124.787 83.3983 137.374C83.3983 149.961 93.6385 154.29 106.228 147.023C118.818 139.757 129.058 123.6 129.058 111.013C129.058 98.4236 118.818 94.0944 106.228 101.363Z" fill="#FF9D4D"/>
<path d="M109.61 120.109V123.79C109.535 123.827 109.454 123.868 109.376 123.915L107.354 125.081V121.639L108.491 120.983C108.897 120.752 109.272 120.458 109.61 120.109Z" fill="#D1975D"/>
<path d="M109.155 129.948C109.311 129.857 109.462 129.759 109.61 129.652V137.153L107.354 138.456V130.989L109.155 129.948Z" fill="#D1975D"/>
<path d="M115.264 120.658C114.517 120.111 113.5 120.018 112.217 120.379C113.268 119.31 114.069 118.137 114.616 116.864C115.162 115.592 115.438 114.406 115.438 113.313C115.438 112.618 115.316 111.999 115.074 111.455C114.832 110.912 114.491 110.498 114.049 110.217C113.606 109.936 113.07 109.808 112.438 109.837C111.806 109.866 111.101 110.105 110.323 110.553L109.61 110.964V107.329L107.355 108.633V112.267L104.61 113.852V110.217L102.354 111.52V115.155L98.3267 117.481V139.894L102.354 137.569V141.344L104.61 140.04V136.265L109.155 133.643C109.308 133.554 109.459 133.463 109.61 133.369C110.43 132.862 111.21 132.29 111.949 131.65C112.823 130.893 113.591 130.081 114.254 129.215C114.918 128.348 115.438 127.448 115.818 126.514C116.198 125.58 116.385 124.638 116.385 123.691C116.385 122.216 116.01 121.207 115.264 120.658ZM110.432 114.97C110.906 115.202 111.143 115.751 111.143 116.612C111.143 117.497 110.885 118.339 110.37 119.141C110.138 119.5 109.886 119.822 109.61 120.106C109.272 120.455 108.897 120.749 108.491 120.983L104.61 123.223L102.682 124.336V118.685L108.679 115.223C109.014 115.027 109.324 114.91 109.608 114.864C109.915 114.817 110.188 114.853 110.432 114.97ZM111.775 126.667C111.627 127.11 111.426 127.536 111.174 127.945C110.921 128.353 110.622 128.733 110.274 129.079C110.06 129.293 109.842 129.482 109.61 129.649C109.462 129.758 109.311 129.857 109.155 129.946L102.684 133.682V127.778L104.612 126.665L109.379 123.915C109.459 123.868 109.537 123.826 109.613 123.79C109.902 123.649 110.17 123.569 110.419 123.551C110.734 123.527 111.007 123.584 111.241 123.725C111.473 123.865 111.658 124.081 111.793 124.368C111.928 124.656 111.999 125.002 111.999 125.403C111.999 125.804 111.923 126.223 111.775 126.667Z" fill="#FF9D4D"/>
<path d="M108.275 97.2504L108.054 97.6355L100.239 93.1215C100.39 93.0356 100.541 92.9524 100.689 92.8691L108.275 97.2504Z" fill="#FFE840"/>
<path d="M101.368 100.224L101.147 100.609L94.6401 96.8525C94.7676 96.7562 94.8951 96.6573 95.0226 96.561L101.368 100.224Z" fill="#FFE840"/>
<path d="M96.5601 104.413L96.339 104.798L89.8218 101.036C89.9337 100.929 90.0429 100.822 90.1547 100.716L96.5601 104.413Z" fill="#FFE840"/>
<path d="M91.7495 108.596L91.5283 108.981L85.5991 105.557C85.6954 105.443 85.7942 105.328 85.8905 105.214L91.7495 108.596Z" fill="#FFE840"/>
<path d="M89.0336 113.992L88.8125 114.377L81.8945 110.384C81.9778 110.262 82.0637 110.139 82.1496 110.02L89.0336 113.992Z" fill="#FFE840"/>
<path d="M87.2877 119.984L87.0666 120.369L78.6865 115.493C78.7594 115.366 78.8322 115.236 78.905 115.108L87.2877 119.984Z" fill="#FFE840"/>
<path d="M83.8766 124.94L83.6555 125.325L75.9883 120.9C76.0455 120.764 76.108 120.626 76.1678 120.491L83.8766 124.94Z" fill="#FFE840"/>
<path d="M82.5788 131.153L82.3576 131.538L73.8813 126.644C73.923 126.498 73.9672 126.353 74.0114 126.207L82.5788 131.153Z" fill="#FFE840"/>
<path d="M80.3879 136.851L80.1668 137.236L72.5386 132.831C72.5594 132.672 72.5802 132.516 72.6036 132.357L80.3879 136.851Z" fill="#FFE840"/>
<path d="M80.716 144.003L80.4949 144.388L72.4114 139.721C72.3906 139.541 72.3724 139.361 72.3594 139.177L80.716 144.003Z" fill="#FFE840"/>
<path d="M114.918 94.1126L114.697 94.4976L107.089 90.1059C107.284 90.0461 107.48 89.9863 107.675 89.9316L114.918 94.1126Z" fill="#FFE840"/>
<path d="M89.0045 141.926L88.9004 141.783C88.6195 141.398 88.1277 141.229 87.6672 141.359C87.4799 141.414 87.3889 141.627 87.4825 141.799L88.021 142.793C88.0444 142.834 88.0757 142.871 88.1173 142.899L90.0321 144.221C90.1596 144.31 90.3313 144.289 90.4328 144.174L90.9766 143.573C91.1067 143.43 91.0728 143.206 90.9089 143.105L89.0956 142.002C89.0591 141.986 89.0279 141.958 89.0045 141.926Z" fill="#FFD0A6"/>
<path d="M108.013 113.758L108.569 112.145L110.201 107.426L112.545 109.666L113.531 113.875C113.778 114.924 113.349 116.017 112.456 116.62L109.86 117.866L108.013 113.758Z" fill="#FFD0A6"/>
<path d="M33.2038 120.845L63.6775 142.78C66.8932 145.096 66.9452 149.862 63.7841 152.248L44.339 166.913L38.6101 162.295C38.6101 162.295 50.5831 150.145 49.826 149.667C49.3994 149.396 40.4209 142.712 32.66 136.924C27.1808 132.842 27.4644 124.547 33.2038 120.845Z" fill="url(#paint6_linear)"/>
<path d="M47.7786 166.661L46.1057 168.446C45.2238 169.387 45.2264 170.852 46.1136 171.789L48.3666 174.164C49.0118 174.846 49.2772 175.803 49.0716 176.722C48.6424 178.636 46.4335 179.537 44.7867 178.47L43.5326 177.656C41.1755 176.126 39.2294 174.044 37.8609 171.591L34.0703 164.793C32.8397 162.584 34.0963 159.813 36.5679 159.288L44.4588 157.607L47.7786 166.661Z" fill="#422A78"/>
<path d="M64.237 131.993L55.9975 170.977L43.9074 202.249L32.2466 197.127C33.204 191.973 34.4892 186.889 36.1049 181.917C37.7283 176.94 39.6666 172.072 41.9301 167.343L44.6098 126.967L44.6436 126.499L64.237 131.993Z" fill="url(#paint7_linear)"/>
<path d="M60.4148 131.4L52.1674 170.384L40.4364 200.728L32.2437 197.13C33.2011 191.976 34.4863 186.892 36.102 181.92C37.7254 176.943 39.6637 172.075 41.9271 167.345L42.4891 126.376L60.4148 131.4Z" fill="url(#paint8_linear)"/>
<path d="M70.9622 81.7313C77.7188 85.4465 80.5858 94.3599 78.1974 101.694C74.1466 114.128 69.0421 133.539 63.2117 144.815C62.3896 146.404 60.5788 147.216 58.8513 146.748L52.6592 145.07C43.5429 142.6 40.3142 135.714 32.9748 129.774C30.0869 127.438 29.0983 123.47 30.5526 120.052L41.2794 100.055L45.7803 75.417C47.677 69.7167 54.47 67.3726 59.4756 70.6923L70.9622 81.7313Z" fill="url(#paint9_linear)"/>
<path d="M79.9383 96.1134L84.9908 121.516L76.2464 117.515L107.852 112.993C109.08 112.816 110.256 113.553 110.638 114.734L110.682 114.869C111.153 116.326 110.381 117.897 108.939 118.413L82.0066 128.039C78.7077 130.19 74.2718 128.406 73.3846 124.566L73.2623 124.037L67.4293 98.801C66.6254 95.3199 68.8265 91.8544 72.3179 91.1052C75.8094 90.3559 79.241 92.6115 79.9383 96.1134Z" fill="url(#paint10_linear)"/>
<path d="M60.082 71.5897L63.1989 68.054L63.1858 60.1761C62.2856 55.6491 64.2473 51.0311 68.1317 48.536C71.7506 46.2101 76.3739 46.1373 80.0657 48.3435L84.5093 51.0025C86.3695 52.116 86.9445 54.5434 85.7816 56.3698L85.7503 56.4192C85.2456 57.2127 84.8996 58.0739 84.7148 58.9793L83.8537 63.2148C83.8146 64.7837 83.375 66.316 82.5763 67.6689L81.6448 69.2456C79.7924 71.7016 76.3036 72.2011 73.8372 70.3617L69.3285 80.5759L60.082 71.5897Z" fill="#FFD0A6"/>
<path d="M84.8449 58.4513L80.5391 60.1242C80.5391 60.1242 79.2799 62.0079 78.8221 64.4639C78.3642 66.9199 72.7861 68.4262 72.7861 68.4262L69.0397 70.851C68.2435 71.3661 67.2393 71.4494 66.3703 71.0695L63.4122 69.7791C61.794 69.074 60.7168 67.5052 60.6518 65.7413C60.592 64.1412 60.5763 62.3044 60.7584 61.4329C60.9458 60.5405 60.7897 58.5476 60.5946 56.8305C60.3422 54.5852 60.8339 52.3139 62.0489 50.4095C62.7774 49.2726 63.6594 48.133 64.5882 47.4904C66.9271 45.867 68.0484 43.6945 72.5754 44.1602C77.1023 44.6259 83.8849 46.6292 85.2534 48.1903C86.6219 49.7513 86.1614 50.2768 86.8899 53.2662C87.6184 56.2555 84.8449 58.4513 84.8449 58.4513Z" fill="#89603E"/>
<path d="M59.3638 71.1526L61.7495 69.6982L70.6785 77.5111L69.7653 81.0547L59.3638 71.1526Z" fill="url(#paint11_linear)"/>
<path d="M77.8986 66.5556L77.3835 64.7006C77.1779 63.9592 76.2257 63.4778 75.4322 63.7172C74.9639 63.8577 74.6699 64.2219 74.6673 64.6564L74.6465 69.1418L78.1198 68.8971L77.8986 66.5556Z" fill="#FFD0A6"/>
<path d="M45.3641 198.48L43.9045 202.252C43.8967 202.263 43.9123 202.242 43.9045 202.252C42.7416 203.53 41.5994 204.984 43.314 204.773L45.554 206.649C46.1992 207.331 46.4646 208.288 46.259 209.206C45.8297 211.121 44.4977 211.225 44.4977 211.225L40.5197 212.547C39.6612 212.833 38.7219 212.654 38.0091 212.097C36.2009 210.684 34.6893 208.923 33.568 206.909L29.7773 200.111C28.5467 197.902 29.8033 195.131 32.2749 194.606L33.5888 191.367L45.3641 198.48Z" fill="#422A78"/>
<defs>
<filter id="filter0_b" x="-10" y="10" width="622" height="260" filterUnits="userSpaceOnUse" color-interpolation-filters="sRGB">
<feFlood flood-opacity="0" result="BackgroundImageFix"/>
<feGaussianBlur in="BackgroundImage" stdDeviation="5"/>
<feComposite in2="SourceAlpha" operator="in" result="effect1_backgroundBlur"/>
<feBlend mode="normal" in="SourceGraphic" in2="effect1_backgroundBlur" result="shape"/>
</filter>
<filter id="filter1_b" x="437" y="172" width="164" height="88" filterUnits="userSpaceOnUse" color-interpolation-filters="sRGB">
<feFlood flood-opacity="0" result="BackgroundImageFix"/>
<feGaussianBlur in="BackgroundImage" stdDeviation="10"/>
<feComposite in2="SourceAlpha" operator="in" result="effect1_backgroundBlur"/>
<feBlend mode="normal" in="SourceGraphic" in2="effect1_backgroundBlur" result="shape"/>
</filter>
<linearGradient id="paint0_linear" x1="30.2317" y1="199.415" x2="197.377" y2="199.415" gradientUnits="userSpaceOnUse">
<stop stop-color="#2E256B"/>
<stop offset="1" stop-color="#5A3087"/>
</linearGradient>
<linearGradient id="paint1_linear" x1="19.9997" y1="148.217" x2="197.377" y2="148.217" gradientUnits="userSpaceOnUse">
<stop stop-color="#6A5EBF"/>
<stop offset="1" stop-color="#6E3AA5"/>
</linearGradient>
<linearGradient id="paint2_linear" x1="146.498" y1="78.4882" x2="208.776" y2="78.4882" gradientUnits="userSpaceOnUse">
<stop stop-color="#2E256B"/>
<stop offset="1" stop-color="#5A3087"/>
</linearGradient>
<linearGradient id="paint3_linear" x1="139.031" y1="60.0147" x2="208.791" y2="60.0147" gradientUnits="userSpaceOnUse">
<stop stop-color="#6A5EBF"/>
<stop offset="1" stop-color="#6E3AA5"/>
</linearGradient>
<linearGradient id="paint4_linear" x1="139.031" y1="83.7869" x2="146.498" y2="83.7869" gradientUnits="userSpaceOnUse">
<stop stop-color="#6A5EBF"/>
<stop offset="1" stop-color="#6E3AA5"/>
</linearGradient>
<linearGradient id="paint5_linear" x1="189.682" y1="87.5323" x2="197.357" y2="87.5323" gradientUnits="userSpaceOnUse">
<stop stop-color="#2E256B"/>
<stop offset="1" stop-color="#5A3087"/>
</linearGradient>
<linearGradient id="paint6_linear" x1="28.7189" y1="143.879" x2="66.1219" y2="143.879" gradientUnits="userSpaceOnUse">
<stop stop-color="#2E256B"/>
<stop offset="1" stop-color="#5A3087"/>
</linearGradient>
<linearGradient id="paint7_linear" x1="37.4848" y1="163.323" x2="58.8647" y2="166.638" gradientUnits="userSpaceOnUse">
<stop stop-color="#2E256B"/>
<stop offset="1" stop-color="#5A3087"/>
</linearGradient>
<linearGradient id="paint8_linear" x1="36.8369" y1="162.834" x2="55.1024" y2="165.666" gradientUnits="userSpaceOnUse">
<stop stop-color="#6A5EBF"/>
<stop offset="1" stop-color="#6E3AA5"/>
</linearGradient>
<linearGradient id="paint9_linear" x1="29.8873" y1="108.023" x2="79.0288" y2="108.023" gradientUnits="userSpaceOnUse">
<stop stop-color="#2E256B"/>
<stop offset="1" stop-color="#5A3087"/>
</linearGradient>
<linearGradient id="paint10_linear" x1="67.263" y1="109.963" x2="110.82" y2="109.963" gradientUnits="userSpaceOnUse">
<stop stop-color="#6A5EBF"/>
<stop offset="1" stop-color="#6E3AA5"/>
</linearGradient>
<linearGradient id="paint11_linear" x1="59.3649" y1="75.3763" x2="70.6773" y2="75.3763" gradientUnits="userSpaceOnUse">
<stop stop-color="#6A5EBF"/>
<stop offset="1" stop-color="#6E3AA5"/>
</linearGradient>
</defs>
</svg>
