<svg width="622" height="260" viewBox="0 0 622 260" fill="none" xmlns="http://www.w3.org/2000/svg">
<g filter="url(#filter0_b)">
<rect width="622" height="240" rx="24" fill="#1A1F34"/>
<rect x="0.5" y="0.5" width="621" height="239" rx="23.5" stroke="#8DD9FC"/>
</g>
<path d="M407.707 258.587C407.316 258.977 406.684 258.977 406.293 258.587L387.4 239.707C386.769 239.078 387.215 238 388.107 238L425.893 238C426.785 238 427.231 239.078 426.6 239.707L407.707 258.587Z" fill="#1A1F34" stroke="#8DD9FC"/>
<path d="M385.261 237L428.5 237L428.5 239L426.665 239L424.589 241L389.405 241L387.333 239L385.261 239L385.261 237Z" fill="#1A1F34"/>
<!--<path opacity="0.5" d="M365.49 201.16C369.074 201.16 370.066 199.576 370.066 197.88C370.066 196.904 369.65 196.168 368.93 195.8C368.274 195.448 367.25 195.272 366.146 195.096C365.234 194.968 364.05 194.776 363.586 194.552C363.17 194.36 362.962 194.008 362.962 193.416C362.962 192.456 363.906 191.8 365.49 191.8C367.138 191.8 367.986 192.536 367.986 194.088L369.714 194.088C369.714 191.688 368.578 190.312 365.458 190.312C362.706 190.312 361.058 191.656 361.058 193.576C361.058 194.568 361.458 195.288 362.098 195.688C362.674 196.056 363.794 196.296 364.85 196.44C365.762 196.568 366.898 196.712 367.426 196.92C367.922 197.096 368.162 197.432 368.162 198.008C368.162 198.872 367.618 199.672 365.474 199.672C363.458 199.672 362.818 198.744 362.818 197.4L361.09 197.4C361.09 199.32 362.002 201.16 365.49 201.16ZM372.409 201L374.329 201L374.329 198.44L376.297 196.52L380.041 201L382.601 201L377.641 195.288L382.313 190.472L379.929 190.472L374.361 196.312L374.329 196.312L374.329 190.472L372.409 190.472L372.409 201ZM384.582 201L386.486 201L386.486 190.472L384.582 190.472L384.582 201ZM389.251 201L391.171 201L391.171 197.736L393.843 197.736C396.371 197.736 397.747 196.424 397.747 194.136C397.747 191.784 396.211 190.472 393.603 190.472L389.251 190.472L389.251 201ZM391.171 196.376L391.171 192.072L393.539 192.072C395.075 192.072 395.923 192.84 395.923 194.232C395.923 195.672 395.123 196.376 393.731 196.376L391.171 196.376ZM404.424 201L406.328 201L406.328 190.472L404.424 190.472L404.424 201ZM409.093 201L410.901 201L410.885 192.072L410.901 192.072L416.517 201L418.789 201L418.789 190.472L416.981 190.472L417.013 198.472L416.981 198.472L411.973 190.472L409.093 190.472L409.093 201ZM424.043 201L425.963 201L425.963 192.056L429.227 192.056L429.227 190.472L420.779 190.472L420.779 192.056L424.043 192.056L424.043 201ZM431.217 201L433.137 201L433.137 196.824L436.097 196.824C437.505 196.824 437.937 197.4 437.937 198.456L437.937 201L439.873 201L439.873 198.424C439.873 197.16 439.393 196.264 438.113 196.072L438.113 196.04C439.345 195.816 439.937 194.888 439.937 193.528C439.937 191.64 438.545 190.472 435.841 190.472L431.217 190.472L431.217 201ZM433.137 195.56L433.137 192.072L435.825 192.072C437.361 192.072 438.097 192.712 438.097 193.768C438.097 194.888 437.425 195.56 435.873 195.56L433.137 195.56ZM447.492 201.16C450.564 201.16 452.964 199.096 452.964 195.688C452.964 192.344 450.564 190.312 447.492 190.312C444.436 190.312 442.036 192.344 442.036 195.688C442.036 199.096 444.436 201.16 447.492 201.16ZM447.492 199.56C445.556 199.56 443.988 198.104 443.988 195.688C443.988 193.336 445.556 191.912 447.492 191.912C449.444 191.912 451.012 193.336 451.012 195.688C451.012 198.104 449.444 199.56 447.492 199.56Z" fill="white"/>-->
<g filter="url(#filter1_b)">
<!--<rect x="477" y="172" width="124" height="48" rx="8" fill="black" fill-opacity="0.5"/>-->
<!--<rect x="477.5" y="172.5" width="123" height="47" rx="7.5" stroke="white"/>-->
</g>
<!--<path d="M518.381 201L520.189 201L520.173 192.072L520.189 192.072L525.805 201L528.077 201L528.077 190.472L526.269 190.472L526.301 198.472L526.269 198.472L521.261 190.472L518.381 190.472L518.381 201ZM531.091 201L538.435 201L538.435 199.4L533.011 199.4L533.011 196.328L537.203 196.328L537.203 195.08L533.011 195.08L533.011 192.072L538.291 192.072L538.291 190.472L531.091 190.472L531.091 201ZM540.175 201L542.447 201L545.135 196.888L547.855 201L550.255 201L546.447 195.592L550.127 190.472L547.951 190.472L545.375 194.424L542.719 190.472L540.303 190.472L543.999 195.608L540.175 201ZM555.133 201L557.053 201L557.053 192.056L560.317 192.056L560.317 190.472L551.869 190.472L551.869 192.056L555.133 192.056L555.133 201Z" fill="white"/>-->
<g filter="url(#filter2_b)">
<!--<rect x="213" y="172" width="124" height="48" rx="8" fill="black" fill-opacity="0.5"/>-->
<!--<rect x="213.5" y="172.5" width="123" height="47" rx="7.5" stroke="white"/>-->
</g>
<!--<path d="M254.162 201L256.082 201L256.082 197.736L258.754 197.736C261.282 197.736 262.658 196.424 262.658 194.136C262.658 191.784 261.122 190.472 258.514 190.472L254.162 190.472L254.162 201ZM256.082 196.376L256.082 192.072L258.45 192.072C259.986 192.072 260.834 192.84 260.834 194.232C260.834 195.672 260.034 196.376 258.642 196.376L256.082 196.376ZM265.247 201L267.167 201L267.167 196.824L270.127 196.824C271.535 196.824 271.967 197.4 271.967 198.456L271.967 201L273.903 201L273.903 198.424C273.903 197.16 273.423 196.264 272.143 196.072L272.143 196.04C273.375 195.816 273.967 194.888 273.967 193.528C273.967 191.64 272.575 190.472 269.871 190.472L265.247 190.472L265.247 201ZM267.167 195.56L267.167 192.072L269.855 192.072C271.391 192.072 272.127 192.712 272.127 193.768C272.127 194.888 271.455 195.56 269.903 195.56L267.167 195.56ZM276.754 201L284.098 201L284.098 199.4L278.674 199.4L278.674 196.328L282.866 196.328L282.866 195.08L278.674 195.08L278.674 192.072L283.954 192.072L283.954 190.472L276.754 190.472L276.754 201ZM290.014 201L292.35 201L296.558 190.472L294.574 190.472L291.326 199.24L291.294 199.24L287.998 190.472L285.838 190.472L290.014 201Z" fill="white"/>-->
<!--<path d="M224.093 100H225.437V95.072H231.901V100H233.245V89.472H231.901V93.952H225.437V89.472H224.093V100ZM242.803 95.712C242.803 93.36 241.475 91.968 239.219 91.968C236.851 91.968 235.331 93.584 235.331 96.112C235.331 98.56 236.867 100.128 239.251 100.128C241.331 100.128 242.723 99.04 242.803 97.328H241.619C241.507 98.368 240.595 99.04 239.267 99.04C237.715 99.04 236.691 97.984 236.611 96.304H242.803V95.712ZM241.619 95.376H236.659C236.899 93.872 237.843 93.056 239.251 93.056C240.755 93.056 241.619 93.888 241.619 95.28V95.376ZM244.729 100H246.009V96.496C246.009 94.528 246.953 93.12 248.569 93.12C249.865 93.12 250.409 93.872 250.409 95.328C250.409 95.824 250.377 96.224 250.345 96.464H251.513C251.545 96.176 251.593 95.6 251.593 95.056C251.593 93.152 250.649 91.968 248.873 91.968C247.177 91.968 246.361 93.008 245.993 94.384H245.977L246.009 92.096H244.729V100ZM260.663 95.712C260.663 93.36 259.335 91.968 257.079 91.968C254.711 91.968 253.191 93.584 253.191 96.112C253.191 98.56 254.727 100.128 257.111 100.128C259.191 100.128 260.583 99.04 260.663 97.328H259.479C259.367 98.368 258.455 99.04 257.127 99.04C255.575 99.04 254.551 97.984 254.471 96.304H260.663V95.712ZM259.479 95.376H254.519C254.759 93.872 255.703 93.056 257.111 93.056C258.615 93.056 259.479 93.888 259.479 95.28V95.376ZM267.604 103.328C269.108 103.328 269.716 102.592 270.66 100.144L273.796 92.096H272.5L269.956 98.704H269.924L267.044 92.096H265.54L269.092 100H269.428C268.692 101.792 268.308 102.208 267.444 102.208C267.044 102.208 266.66 102.112 266.468 102.048V103.12C266.692 103.216 267.156 103.328 267.604 103.328ZM278.472 100.128C280.92 100.128 282.472 98.544 282.472 96.064C282.472 93.568 280.92 91.968 278.472 91.968C276.024 91.968 274.472 93.568 274.472 96.064C274.472 98.544 276.024 100.128 278.472 100.128ZM278.472 98.976C276.808 98.976 275.752 97.84 275.752 96.064C275.752 94.272 276.808 93.12 278.472 93.12C280.136 93.12 281.192 94.272 281.192 96.064C281.192 97.84 280.136 98.976 278.472 98.976ZM287.634 100.128C289.602 100.128 290.722 99.168 291.058 97.68H291.074C291.074 98.48 291.042 99.472 291.01 100H292.29V92.096H291.01V95.664C291.01 97.744 289.826 98.976 287.986 98.976C286.482 98.976 285.586 98.112 285.586 96.752V92.096H284.306V96.976C284.306 98.896 285.57 100.128 287.634 100.128ZM301.67 100.128C303.862 100.128 305.27 98.848 305.27 96.864H304.086C304.07 98.16 303.142 98.976 301.702 98.976C300.166 98.976 299.174 97.84 299.174 96.048C299.174 94.256 300.198 93.12 301.782 93.12C303.158 93.12 304.038 93.952 304.054 95.264H305.238C305.238 93.248 303.878 91.968 301.766 91.968C299.398 91.968 297.894 93.552 297.894 96.048C297.894 98.544 299.366 100.128 301.67 100.128ZM309.478 100.128C311.446 100.128 312.438 99.344 312.71 98.128H312.726C312.71 98.896 312.678 99.632 312.662 100H313.942V95.184C313.942 93.12 312.598 91.968 310.278 91.968C308.134 91.968 306.79 92.912 306.79 94.48C306.79 94.624 306.806 94.848 306.822 94.96H308.006C307.99 94.832 307.99 94.72 307.99 94.672C307.99 93.6 308.79 93.056 310.246 93.056C311.862 93.056 312.662 93.712 312.662 95.072V95.648H309.446C307.334 95.648 306.55 96.608 306.55 97.728C306.55 99.216 307.686 100.128 309.478 100.128ZM309.734 99.04C308.486 99.04 307.75 98.528 307.75 97.728C307.75 96.96 308.262 96.576 309.558 96.576H312.662V96.688C312.662 98.128 311.526 99.04 309.734 99.04ZM316.104 100H317.384V96.112C317.384 94.224 318.552 93.12 320.36 93.12C322.056 93.12 322.824 93.984 322.824 95.328V100H324.104V95.056C324.104 93.168 322.872 91.968 320.792 91.968C318.904 91.968 317.8 92.848 317.368 94.224H317.352L317.384 92.096H316.104V100ZM329.948 100H331.228V96.08C331.228 94.208 332.156 93.12 333.612 93.12C334.876 93.12 335.532 93.936 335.532 95.216V100H336.812V96.016C336.812 94.192 337.74 93.12 339.196 93.12C340.46 93.12 341.1 93.952 341.1 95.264V100H342.38V94.992C342.38 93.152 341.34 91.968 339.548 91.968C338.06 91.968 337.036 92.784 336.764 94.048H336.748C336.556 92.784 335.532 91.968 333.98 91.968C332.556 91.968 331.548 92.832 331.212 94.192H331.196L331.228 92.096H329.948V100ZM347.15 100.128C349.118 100.128 350.11 99.344 350.382 98.128H350.398C350.382 98.896 350.35 99.632 350.334 100H351.614V95.184C351.614 93.12 350.27 91.968 347.95 91.968C345.806 91.968 344.462 92.912 344.462 94.48C344.462 94.624 344.478 94.848 344.494 94.96H345.678C345.662 94.832 345.662 94.72 345.662 94.672C345.662 93.6 346.462 93.056 347.918 93.056C349.534 93.056 350.334 93.712 350.334 95.072V95.648H347.118C345.006 95.648 344.222 96.608 344.222 97.728C344.222 99.216 345.358 100.128 347.15 100.128ZM347.406 99.04C346.158 99.04 345.422 98.528 345.422 97.728C345.422 96.96 345.934 96.576 347.23 96.576H350.334V96.688C350.334 98.128 349.198 99.04 347.406 99.04ZM353.856 100H355.136V97.92L356.944 96.352L360.304 100H362.128L357.904 95.536L361.904 92.096H360.112L355.152 96.512H355.136V88.912H353.856V100ZM370.241 95.712C370.241 93.36 368.913 91.968 366.657 91.968C364.289 91.968 362.769 93.584 362.769 96.112C362.769 98.56 364.305 100.128 366.689 100.128C368.769 100.128 370.161 99.04 370.241 97.328H369.057C368.945 98.368 368.033 99.04 366.705 99.04C365.153 99.04 364.129 97.984 364.049 96.304H370.241V95.712ZM369.057 95.376H364.097C364.337 93.872 365.281 93.056 366.689 93.056C368.193 93.056 369.057 93.888 369.057 95.28V95.376ZM377.182 103.328C378.686 103.328 379.294 102.592 380.238 100.144L383.374 92.096H382.078L379.534 98.704H379.502L376.622 92.096H375.118L378.67 100H379.006C378.27 101.792 377.886 102.208 377.022 102.208C376.622 102.208 376.238 102.112 376.046 102.048V103.12C376.27 103.216 376.734 103.328 377.182 103.328ZM388.05 100.128C390.498 100.128 392.05 98.544 392.05 96.064C392.05 93.568 390.498 91.968 388.05 91.968C385.602 91.968 384.05 93.568 384.05 96.064C384.05 98.544 385.602 100.128 388.05 100.128ZM388.05 98.976C386.386 98.976 385.33 97.84 385.33 96.064C385.33 94.272 386.386 93.12 388.05 93.12C389.714 93.12 390.77 94.272 390.77 96.064C390.77 97.84 389.714 98.976 388.05 98.976ZM397.212 100.128C399.18 100.128 400.3 99.168 400.636 97.68H400.652C400.652 98.48 400.62 99.472 400.588 100H401.868V92.096H400.588V95.664C400.588 97.744 399.404 98.976 397.564 98.976C396.06 98.976 395.164 98.112 395.164 96.752V92.096H393.884V96.976C393.884 98.896 395.148 100.128 397.212 100.128ZM404.104 100H405.384V96.496C405.384 94.528 406.328 93.12 407.944 93.12C409.24 93.12 409.784 93.872 409.784 95.328C409.784 95.824 409.752 96.224 409.72 96.464H410.888C410.92 96.176 410.968 95.6 410.968 95.056C410.968 93.152 410.024 91.968 408.248 91.968C406.552 91.968 405.736 93.008 405.368 94.384H405.352L405.384 92.096H404.104V100ZM421.149 100.128C423.357 100.128 424.781 98.48 424.781 95.904C424.781 93.504 423.389 91.968 421.117 91.968C419.421 91.968 418.269 92.784 417.917 94.048H417.901C417.917 93.664 417.933 93.024 417.933 92.704V88.912H416.653V100H417.933C417.901 99.584 417.869 98.8 417.869 98.176H417.885C418.221 99.36 419.357 100.128 421.149 100.128ZM420.829 98.976C419.069 98.976 417.933 98 417.933 96.48V96.064C417.933 94.272 419.085 93.12 420.877 93.12C422.509 93.12 423.501 94.224 423.501 95.936C423.501 97.792 422.461 98.976 420.829 98.976ZM426.73 91.088H428.106V89.472H426.73V91.088ZM426.778 100H428.058V92.096H426.778V100ZM433.522 100.064C434.162 100.064 434.626 99.968 434.866 99.872V98.784C434.69 98.848 434.178 98.944 433.634 98.944C432.45 98.944 432.066 98.224 432.066 97.024V93.216H434.93V92.096H432.066V90.304H430.978L430.914 91.552C430.882 91.968 430.786 92.096 430.53 92.096H429.474V93.216H430.786V97.104C430.786 98.848 431.602 100.064 433.522 100.064ZM439.826 100.128C442.018 100.128 443.426 98.848 443.426 96.864H442.242C442.226 98.16 441.298 98.976 439.858 98.976C438.322 98.976 437.33 97.84 437.33 96.048C437.33 94.256 438.354 93.12 439.938 93.12C441.314 93.12 442.194 93.952 442.21 95.264H443.394C443.394 93.248 442.034 91.968 439.922 91.968C437.554 91.968 436.05 93.552 436.05 96.048C436.05 98.544 437.522 100.128 439.826 100.128ZM449.113 100.128C451.561 100.128 453.113 98.544 453.113 96.064C453.113 93.568 451.561 91.968 449.113 91.968C446.664 91.968 445.113 93.568 445.113 96.064C445.113 98.544 446.664 100.128 449.113 100.128ZM449.113 98.976C447.449 98.976 446.393 97.84 446.393 96.064C446.393 94.272 447.449 93.12 449.113 93.12C450.777 93.12 451.833 94.272 451.833 96.064C451.833 97.84 450.777 98.976 449.113 98.976ZM455.058 91.088H456.434V89.472H455.058V91.088ZM455.106 100H456.386V92.096H455.106V100ZM458.714 100H459.994V96.112C459.994 94.224 461.162 93.12 462.97 93.12C464.666 93.12 465.434 93.984 465.434 95.328V100H466.714V95.056C466.714 93.168 465.482 91.968 463.402 91.968C461.514 91.968 460.41 92.848 459.978 94.224H459.962L459.994 92.096H458.714V100ZM477.134 100.128C479.342 100.128 480.766 98.48 480.766 95.904C480.766 93.504 479.374 91.968 477.102 91.968C475.406 91.968 474.254 92.784 473.902 94.048H473.886C473.902 93.664 473.918 93.024 473.918 92.704V88.912H472.638V100H473.918C473.886 99.584 473.854 98.8 473.854 98.176H473.87C474.206 99.36 475.342 100.128 477.134 100.128ZM476.814 98.976C475.054 98.976 473.918 98 473.918 96.48V96.064C473.918 94.272 475.07 93.12 476.862 93.12C478.494 93.12 479.486 94.224 479.486 95.936C479.486 97.792 478.446 98.976 476.814 98.976ZM489.835 95.712C489.835 93.36 488.507 91.968 486.251 91.968C483.883 91.968 482.363 93.584 482.363 96.112C482.363 98.56 483.899 100.128 486.283 100.128C488.363 100.128 489.755 99.04 489.835 97.328H488.651C488.539 98.368 487.627 99.04 486.299 99.04C484.747 99.04 483.723 97.984 483.643 96.304H489.835V95.712ZM488.651 95.376H483.691C483.931 93.872 484.875 93.056 486.283 93.056C487.787 93.056 488.651 93.888 488.651 95.28V95.376ZM494.897 100.064C495.537 100.064 496.001 99.968 496.241 99.872V98.784C496.065 98.848 495.553 98.944 495.009 98.944C493.825 98.944 493.441 98.224 493.441 97.024V93.216H496.305V92.096H493.441V90.304H492.353L492.289 91.552C492.257 91.968 492.161 92.096 491.905 92.096H490.849V93.216H492.161V97.104C492.161 98.848 492.977 100.064 494.897 100.064ZM506.273 100.16C509.025 100.16 510.705 98.528 510.705 96.128V89.472H509.489V96.128C509.489 97.856 508.305 98.944 506.321 98.944C504.337 98.944 503.153 97.856 503.153 96.128V89.472H501.809V96.128C501.809 98.528 503.505 100.16 506.273 100.16ZM513.106 103.168H514.386V99.984C514.386 99.616 514.354 98.784 514.338 98.256H514.354C514.69 99.328 515.81 100.128 517.49 100.128C519.81 100.128 521.234 98.48 521.234 95.92C521.234 93.504 519.826 91.968 517.522 91.968C515.81 91.968 514.69 92.816 514.37 94.128H514.354L514.386 92.096H513.106V103.168ZM517.314 98.976C515.522 98.976 514.386 98.016 514.386 96.512V96.032C514.418 94.256 515.554 93.12 517.282 93.12C518.946 93.12 519.954 94.224 519.954 95.936C519.954 97.792 518.93 98.976 517.314 98.976ZM530.519 100.128C532.967 100.128 534.519 98.544 534.519 96.064C534.519 93.568 532.967 91.968 530.519 91.968C528.071 91.968 526.519 93.568 526.519 96.064C526.519 98.544 528.071 100.128 530.519 100.128ZM530.519 98.976C528.855 98.976 527.799 97.84 527.799 96.064C527.799 94.272 528.855 93.12 530.519 93.12C532.183 93.12 533.239 94.272 533.239 96.064C533.239 97.84 532.183 98.976 530.519 98.976ZM536.433 100H537.713V96.496C537.713 94.528 538.657 93.12 540.273 93.12C541.569 93.12 542.113 93.872 542.113 95.328C542.113 95.824 542.081 96.224 542.049 96.464H543.217C543.249 96.176 543.297 95.6 543.297 95.056C543.297 93.152 542.353 91.968 540.577 91.968C538.881 91.968 538.065 93.008 537.697 94.384H537.681L537.713 92.096H536.433V100ZM549.061 100H553.237C556.277 100 558.149 98.016 558.149 94.72C558.149 91.456 556.149 89.472 552.901 89.472H549.061V100ZM550.405 98.784V90.688H552.933C555.333 90.688 556.805 92.208 556.805 94.72C556.805 97.28 555.445 98.784 553.205 98.784H550.405ZM563.753 100.128C566.201 100.128 567.753 98.544 567.753 96.064C567.753 93.568 566.201 91.968 563.753 91.968C561.305 91.968 559.753 93.568 559.753 96.064C559.753 98.544 561.305 100.128 563.753 100.128ZM563.753 98.976C562.089 98.976 561.033 97.84 561.033 96.064C561.033 94.272 562.089 93.12 563.753 93.12C565.417 93.12 566.473 94.272 566.473 96.064C566.473 97.84 565.417 98.976 563.753 98.976ZM571.002 100H572.522L574.634 93.696H574.682L576.73 100H578.298L580.65 92.096H579.418L577.53 98.656H577.498L575.37 92.096H574.106L571.898 98.656H571.866L570.042 92.096H568.65L571.002 100ZM582.151 100H583.431V96.112C583.431 94.224 584.599 93.12 586.407 93.12C588.103 93.12 588.871 93.984 588.871 95.328V100H590.151V95.056C590.151 93.168 588.919 91.968 586.839 91.968C584.951 91.968 583.847 92.848 583.415 94.224H583.399L583.431 92.096H582.151V100ZM276.494 123.128C278.462 123.128 279.454 122.344 279.726 121.128H279.742C279.726 121.896 279.694 122.632 279.678 123H280.958V118.184C280.958 116.12 279.614 114.968 277.294 114.968C275.15 114.968 273.806 115.912 273.806 117.48C273.806 117.624 273.822 117.848 273.838 117.96H275.022C275.006 117.832 275.006 117.72 275.006 117.672C275.006 116.6 275.806 116.056 277.262 116.056C278.878 116.056 279.678 116.712 279.678 118.072V118.648H276.462C274.35 118.648 273.566 119.608 273.566 120.728C273.566 122.216 274.702 123.128 276.494 123.128ZM276.75 122.04C275.502 122.04 274.766 121.528 274.766 120.728C274.766 119.96 275.278 119.576 276.574 119.576H279.678V119.688C279.678 121.128 278.542 122.04 276.75 122.04ZM283.12 123H284.4V119.112C284.4 117.224 285.568 116.12 287.376 116.12C289.072 116.12 289.84 116.984 289.84 118.328V123H291.12V118.056C291.12 116.168 289.888 114.968 287.808 114.968C285.92 114.968 284.816 115.848 284.384 117.224H284.368L284.4 115.096H283.12V123ZM296.716 123.128C298.476 123.128 299.532 122.248 299.836 120.888H299.868C299.852 121.592 299.836 122.296 299.788 123H301.068V111.912H299.788V116.68H299.772C299.484 115.64 298.476 114.968 296.828 114.968C294.428 114.968 292.956 116.648 292.956 119C292.956 121.464 294.428 123.128 296.716 123.128ZM296.924 121.976C295.292 121.976 294.236 120.76 294.236 119C294.236 117.352 295.292 116.12 296.94 116.12C298.684 116.12 299.788 117.144 299.788 118.744V119.144C299.788 120.872 298.668 121.976 296.924 121.976ZM310.241 123.128C312.641 123.128 313.921 122.2 313.921 120.648C313.921 120.056 313.665 119.448 313.137 119.144C312.593 118.84 311.985 118.728 310.753 118.6C309.713 118.488 308.929 118.392 308.545 118.232C308.081 118.04 308.033 117.656 308.033 117.336C308.033 116.552 308.913 116.056 310.273 116.056C311.681 116.056 312.385 116.6 312.401 117.784H313.585C313.585 116.008 312.593 114.968 310.225 114.968C308.113 114.968 306.753 115.928 306.753 117.416C306.753 117.992 306.977 118.568 307.409 118.888C307.889 119.24 308.673 119.4 309.969 119.512C310.945 119.608 311.777 119.704 312.145 119.88C312.545 120.072 312.641 120.376 312.641 120.696C312.641 121.544 311.857 122.04 310.225 122.04C308.577 122.04 307.937 121.416 307.937 120.36H306.753C306.753 121.88 307.585 123.128 310.241 123.128ZM322.991 118.712C322.991 116.36 321.663 114.968 319.407 114.968C317.039 114.968 315.519 116.584 315.519 119.112C315.519 121.56 317.055 123.128 319.439 123.128C321.519 123.128 322.911 122.04 322.991 120.328H321.807C321.695 121.368 320.783 122.04 319.455 122.04C317.903 122.04 316.879 120.984 316.799 119.304H322.991V118.712ZM321.807 118.376H316.847C317.087 116.872 318.031 116.056 319.439 116.056C320.943 116.056 321.807 116.888 321.807 118.28V118.376ZM328.053 123.064C328.693 123.064 329.157 122.968 329.397 122.872V121.784C329.221 121.848 328.709 121.944 328.165 121.944C326.981 121.944 326.597 121.224 326.597 120.024V116.216H329.461V115.096H326.597V113.304H325.509L325.445 114.552C325.413 114.968 325.317 115.096 325.061 115.096H324.005V116.216H325.317V120.104C325.317 121.848 326.133 123.064 328.053 123.064ZM336.214 126.328C337.718 126.328 338.326 125.592 339.27 123.144L342.406 115.096H341.11L338.566 121.704H338.534L335.654 115.096H334.15L337.702 123H338.038C337.302 124.792 336.918 125.208 336.054 125.208C335.654 125.208 335.27 125.112 335.078 125.048V126.12C335.302 126.216 335.766 126.328 336.214 126.328ZM347.081 123.128C349.529 123.128 351.081 121.544 351.081 119.064C351.081 116.568 349.529 114.968 347.081 114.968C344.633 114.968 343.081 116.568 343.081 119.064C343.081 121.544 344.633 123.128 347.081 123.128ZM347.081 121.976C345.417 121.976 344.361 120.84 344.361 119.064C344.361 117.272 345.417 116.12 347.081 116.12C348.745 116.12 349.801 117.272 349.801 119.064C349.801 120.84 348.745 121.976 347.081 121.976ZM356.243 123.128C358.211 123.128 359.331 122.168 359.667 120.68H359.683C359.683 121.48 359.651 122.472 359.619 123H360.899V115.096H359.619V118.664C359.619 120.744 358.435 121.976 356.595 121.976C355.091 121.976 354.195 121.112 354.195 119.752V115.096H352.915V119.976C352.915 121.896 354.179 123.128 356.243 123.128ZM363.136 123H364.416V119.496C364.416 117.528 365.36 116.12 366.976 116.12C368.272 116.12 368.816 116.872 368.816 118.328C368.816 118.824 368.784 119.224 368.752 119.464H369.92C369.952 119.176 370 118.6 370 118.056C370 116.152 369.056 114.968 367.28 114.968C365.584 114.968 364.768 116.008 364.4 117.384H364.384L364.416 115.096H363.136V123ZM380.18 123.128C382.388 123.128 383.812 121.48 383.812 118.904C383.812 116.504 382.42 114.968 380.148 114.968C378.452 114.968 377.3 115.784 376.948 117.048H376.932C376.948 116.664 376.964 116.024 376.964 115.704V111.912H375.684V123H376.964C376.932 122.584 376.9 121.8 376.9 121.176H376.916C377.252 122.36 378.388 123.128 380.18 123.128ZM379.86 121.976C378.1 121.976 376.964 121 376.964 119.48V119.064C376.964 117.272 378.116 116.12 379.908 116.12C381.54 116.12 382.532 117.224 382.532 118.936C382.532 120.792 381.492 121.976 379.86 121.976ZM392.881 118.712C392.881 116.36 391.553 114.968 389.297 114.968C386.929 114.968 385.409 116.584 385.409 119.112C385.409 121.56 386.945 123.128 389.329 123.128C391.409 123.128 392.801 122.04 392.881 120.328H391.697C391.585 121.368 390.673 122.04 389.345 122.04C387.793 122.04 386.769 120.984 386.689 119.304H392.881V118.712ZM391.697 118.376H386.737C386.977 116.872 387.921 116.056 389.329 116.056C390.833 116.056 391.697 116.888 391.697 118.28V118.376ZM397.944 123.064C398.584 123.064 399.048 122.968 399.288 122.872V121.784C399.112 121.848 398.6 121.944 398.056 121.944C396.872 121.944 396.488 121.224 396.488 120.024V116.216H399.352V115.096H396.488V113.304H395.4L395.336 114.552C395.304 114.968 395.208 115.096 394.952 115.096H393.896V116.216H395.208V120.104C395.208 121.848 396.024 123.064 397.944 123.064ZM407.384 123.128C409.352 123.128 410.344 122.344 410.616 121.128H410.632C410.616 121.896 410.584 122.632 410.568 123H411.848V118.184C411.848 116.12 410.504 114.968 408.184 114.968C406.04 114.968 404.696 115.912 404.696 117.48C404.696 117.624 404.712 117.848 404.728 117.96H405.912C405.896 117.832 405.896 117.72 405.896 117.672C405.896 116.6 406.696 116.056 408.152 116.056C409.768 116.056 410.568 116.712 410.568 118.072V118.648H407.352C405.24 118.648 404.456 119.608 404.456 120.728C404.456 122.216 405.592 123.128 407.384 123.128ZM407.64 122.04C406.392 122.04 405.656 121.528 405.656 120.728C405.656 119.96 406.168 119.576 407.464 119.576H410.568V119.688C410.568 121.128 409.432 122.04 407.64 122.04ZM414.011 123H415.291V119.08C415.291 117.208 416.219 116.12 417.675 116.12C418.939 116.12 419.595 116.936 419.595 118.216V123H420.875V119.016C420.875 117.192 421.803 116.12 423.259 116.12C424.523 116.12 425.163 116.952 425.163 118.264V123H426.443V117.992C426.443 116.152 425.403 114.968 423.611 114.968C422.123 114.968 421.099 115.784 420.827 117.048H420.811C420.619 115.784 419.595 114.968 418.043 114.968C416.619 114.968 415.611 115.832 415.275 117.192H415.259L415.291 115.096H414.011V123ZM432.284 123.128C434.732 123.128 436.284 121.544 436.284 119.064C436.284 116.568 434.732 114.968 432.284 114.968C429.836 114.968 428.284 116.568 428.284 119.064C428.284 121.544 429.836 123.128 432.284 123.128ZM432.284 121.976C430.62 121.976 429.564 120.84 429.564 119.064C429.564 117.272 430.62 116.12 432.284 116.12C433.948 116.12 435.004 117.272 435.004 119.064C435.004 120.84 433.948 121.976 432.284 121.976ZM441.446 123.128C443.414 123.128 444.534 122.168 444.87 120.68H444.886C444.886 121.48 444.854 122.472 444.822 123H446.102V115.096H444.822V118.664C444.822 120.744 443.638 121.976 441.798 121.976C440.294 121.976 439.398 121.112 439.398 119.752V115.096H438.118V119.976C438.118 121.896 439.382 123.128 441.446 123.128ZM448.339 123H449.619V119.112C449.619 117.224 450.787 116.12 452.595 116.12C454.291 116.12 455.059 116.984 455.059 118.328V123H456.339V118.056C456.339 116.168 455.107 114.968 453.027 114.968C451.139 114.968 450.035 115.848 449.603 117.224H449.587L449.619 115.096H448.339V123ZM461.631 123.064C462.271 123.064 462.735 122.968 462.975 122.872V121.784C462.799 121.848 462.287 121.944 461.743 121.944C460.559 121.944 460.175 121.224 460.175 120.024V116.216H463.039V115.096H460.175V113.304H459.087L459.023 114.552C458.991 114.968 458.895 115.096 458.639 115.096H457.583V116.216H458.895V120.104C458.895 121.848 459.711 123.064 461.631 123.064ZM468.496 114.088H469.872V112.472H468.496V114.088ZM468.544 123H469.824V115.096H468.544V123ZM472.151 123H473.431V119.112C473.431 117.224 474.599 116.12 476.407 116.12C478.103 116.12 478.871 116.984 478.871 118.328V123H480.151V118.056C480.151 116.168 478.919 114.968 476.839 114.968C474.951 114.968 473.847 115.848 473.415 117.224H473.399L473.431 115.096H472.151V123ZM490.571 123.128C492.779 123.128 494.203 121.48 494.203 118.904C494.203 116.504 492.811 114.968 490.539 114.968C488.843 114.968 487.691 115.784 487.339 117.048H487.323C487.339 116.664 487.355 116.024 487.355 115.704V111.912H486.075V123H487.355C487.323 122.584 487.291 121.8 487.291 121.176H487.307C487.643 122.36 488.779 123.128 490.571 123.128ZM490.251 121.976C488.491 121.976 487.355 121 487.355 119.48V119.064C487.355 117.272 488.507 116.12 490.299 116.12C491.931 116.12 492.923 117.224 492.923 118.936C492.923 120.792 491.883 121.976 490.251 121.976ZM496.152 114.088H497.528V112.472H496.152V114.088ZM496.2 123H497.48V115.096H496.2V123ZM502.944 123.064C503.584 123.064 504.048 122.968 504.288 122.872V121.784C504.112 121.848 503.6 121.944 503.056 121.944C501.872 121.944 501.488 121.224 501.488 120.024V116.216H504.352V115.096H501.488V113.304H500.4L500.336 114.552C500.304 114.968 500.208 115.096 499.952 115.096H498.896V116.216H500.208V120.104C500.208 121.848 501.024 123.064 502.944 123.064ZM509.248 123.128C511.44 123.128 512.848 121.848 512.848 119.864H511.664C511.648 121.16 510.72 121.976 509.28 121.976C507.744 121.976 506.752 120.84 506.752 119.048C506.752 117.256 507.776 116.12 509.36 116.12C510.736 116.12 511.616 116.952 511.632 118.264H512.816C512.816 116.248 511.456 114.968 509.344 114.968C506.976 114.968 505.472 116.552 505.472 119.048C505.472 121.544 506.944 123.128 509.248 123.128ZM518.534 123.128C520.982 123.128 522.534 121.544 522.534 119.064C522.534 116.568 520.982 114.968 518.534 114.968C516.086 114.968 514.534 116.568 514.534 119.064C514.534 121.544 516.086 123.128 518.534 123.128ZM518.534 121.976C516.87 121.976 515.814 120.84 515.814 119.064C515.814 117.272 516.87 116.12 518.534 116.12C520.198 116.12 521.254 117.272 521.254 119.064C521.254 120.84 520.198 121.976 518.534 121.976ZM524.48 114.088H525.856V112.472H524.48V114.088ZM524.528 123H525.808V115.096H524.528V123ZM528.136 123H529.416V119.112C529.416 117.224 530.584 116.12 532.392 116.12C534.088 116.12 534.856 116.984 534.856 118.328V123H536.136V118.056C536.136 116.168 534.904 114.968 532.824 114.968C530.936 114.968 529.832 115.848 529.4 117.224H529.384L529.416 115.096H528.136V123ZM538.516 123H539.892V121.176H538.516V123Z" fill="white"/>-->
<!--<path d="M369.922 72H372.13V67.68L378.114 61.472H375.41L371.218 65.904H371.17L366.946 61.472H363.938L369.922 67.68V72ZM382.589 72.16C386.509 72.16 388.013 70.16 388.013 68.064C388.013 65.984 386.477 63.936 382.589 63.936C378.701 63.936 377.165 65.984 377.165 68.064C377.165 70.16 378.653 72.16 382.589 72.16ZM382.589 70.56C380.109 70.56 379.213 69.36 379.213 68.064C379.213 66.752 380.125 65.536 382.589 65.536C385.053 65.536 385.965 66.752 385.965 68.064C385.965 69.376 385.069 70.56 382.589 70.56ZM393.831 72.16C396.391 72.16 397.815 71.328 398.295 69.552H398.327C398.327 70.368 398.295 71.424 398.263 72H400.311V64.096H398.263V67.328C398.263 69.328 396.535 70.48 394.503 70.48C392.247 70.48 391.511 69.584 391.511 68.128V64.096H389.463V68.56C389.463 70.464 390.759 72.16 393.831 72.16ZM402.012 72H404.06V69.008C404.06 67.248 405.212 65.616 407.308 65.616C409.004 65.616 409.564 66.48 409.564 68.176C409.564 68.464 409.548 68.8 409.532 68.992H411.452C411.468 68.736 411.5 68.192 411.5 67.584C411.5 65.376 410.508 63.936 407.9 63.936C405.676 63.936 404.556 65.088 404.06 66.512H404.028L404.06 64.096H402.012V72ZM424.267 72.16C427.291 72.16 429.131 70.528 429.131 67.92C429.131 65.6 427.451 63.936 424.155 63.936C421.691 63.936 420.571 64.88 420.171 66.064H420.139C420.155 65.76 420.171 65.184 420.171 64.8V60.8H418.123V72H420.171C420.139 71.552 420.091 70.816 420.091 70.256H420.107C420.427 71.216 421.531 72.16 424.267 72.16ZM423.819 70.56C421.371 70.56 420.171 69.424 420.171 68.32V68.224C420.171 66.704 421.611 65.536 423.835 65.536C426.139 65.536 427.083 66.64 427.083 67.952C427.083 69.568 426.059 70.56 423.819 70.56ZM440.732 67.888C440.732 65.44 439.148 63.936 435.772 63.936C432.444 63.936 430.508 65.584 430.508 68.112C430.508 70.08 431.724 72.16 435.9 72.16C439.276 72.16 440.636 70.8 440.732 69.424H438.86C438.732 70.08 437.996 70.704 435.9 70.704C433.484 70.704 432.716 69.728 432.572 68.528H440.732V67.888ZM438.86 67.296H432.636C432.908 66.064 433.868 65.392 435.852 65.392C438.012 65.392 438.86 66.192 438.86 67.248V67.296ZM447.542 72.112C448.438 72.112 449.302 71.984 449.654 71.872V70.32C449.238 70.4 448.422 70.496 447.766 70.496C445.782 70.496 445.206 69.968 445.206 68.832V65.696H449.718V64.096H445.206V62.304H443.478L443.35 63.504C443.302 63.92 443.19 64.096 442.854 64.096H441.574V65.696H443.158V68.928C443.158 70.752 444.246 72.112 447.542 72.112Z" fill="white"/>-->
<rect x="237" y="30" width="52" height="6" rx="3" fill="#F7931A"/>
<rect x="309" y="30" width="52" height="6" rx="3" fill="#F7931A"/>
<rect x="381" y="30" width="52" height="6" rx="3" fill="#F7931A"/>
<rect opacity="0.5" x="453" y="30" width="52" height="6" rx="3" fill="#F7931A"/>
<rect opacity="0.5" x="525" y="30" width="52" height="6" rx="3" fill="#F7931A"/>
<path d="M110.946 42.5283L112.503 40.281L104.568 35.7723C104.421 35.6852 104.271 35.6002 104.121 35.5172L104.115 35.5131C97.1342 31.7008 86.9627 32.6342 75.6372 39.1716C54.5876 51.3251 37.5244 78.2399 37.5244 99.2895C37.5244 108.125 40.5309 114.52 45.5762 118.072L45.5782 118.074C46.3273 118.6 47.1209 119.064 47.9571 119.465L54.8488 123.495L56.3713 121.299C62.0239 121.353 68.6099 119.456 75.6392 115.397C96.6888 103.244 113.752 76.3287 113.752 55.2791C113.748 50.1974 112.752 45.9215 110.946 42.5283Z" fill="#FF9D4D"/>
<path d="M94.6643 33.8814C98.1041 33.8814 101.185 34.6123 103.821 36.0518L103.854 36.068C103.992 36.1429 104.125 36.2219 104.267 36.3028L111.62 40.4816L110.444 42.1802L110.231 42.4859L110.407 42.8139C112.219 46.2152 113.139 50.4101 113.139 55.2813C113.139 76.1021 96.1787 102.833 75.3316 114.869C68.7355 118.677 62.2608 120.689 56.6082 120.689C56.5293 120.689 56.4523 120.689 56.3754 120.687L56.0514 120.683L55.8672 120.951L54.6686 122.682L48.2649 118.936L48.2426 118.924L48.2204 118.914C47.4166 118.527 46.6452 118.078 45.9306 117.574L45.8982 117.551C41.6628 114.555 39.049 109.55 38.3363 103.074C38.308 102.833 38.2857 102.588 38.2655 102.341C38.1804 101.363 38.1359 100.336 38.1359 99.2876C38.1359 97.4999 38.2634 95.6292 38.5145 93.722C38.5408 93.5095 38.5712 93.2949 38.6016 93.0803C38.966 90.5657 39.5531 87.9459 40.3427 85.2896C40.4014 85.0912 40.4601 84.8949 40.5209 84.6965C41.2558 82.3135 42.1648 79.8739 43.2237 77.4383C43.3026 77.2541 43.3857 77.0699 43.4687 76.8816C44.485 74.5938 45.643 72.2939 46.9145 70.0445C47.0117 69.8704 47.1109 69.6963 47.2121 69.5202C48.4674 67.3296 49.8441 65.1532 51.3058 63.0537C51.4212 62.8876 51.5366 62.7216 51.6561 62.5556C53.1381 60.4541 54.7273 58.4012 56.3774 56.4474C56.509 56.2895 56.6426 56.1357 56.7742 55.9798C58.487 53.9795 60.297 52.0541 62.1495 50.2563C62.2993 50.1105 62.4511 49.9668 62.605 49.819C64.5871 47.928 66.6501 46.1525 68.7415 44.5409C68.9136 44.4073 69.0877 44.2756 69.2639 44.144C71.4545 42.4879 73.6997 40.9938 75.943 39.6981C76.0887 39.6151 76.2345 39.53 76.3863 39.445C76.5908 39.3276 76.7953 39.2142 76.9978 39.1008C79.9233 37.4933 82.8225 36.236 85.6164 35.3634L85.7035 35.3371C86.0092 35.244 86.2602 35.1691 86.4991 35.1003C89.3457 34.2945 92.0931 33.8814 94.6643 33.8814ZM94.6643 33.27C92.0647 33.27 89.2728 33.679 86.3332 34.5192C86.0659 34.5941 85.7966 34.6751 85.5274 34.7581H85.5253C82.7011 35.6307 79.7492 36.8981 76.7042 38.5704C76.4977 38.6838 76.2912 38.7992 76.0827 38.9186C75.9328 39.0016 75.7851 39.0867 75.6352 39.1737C73.3353 40.5018 71.0819 42.0061 68.8954 43.6602C68.7193 43.7918 68.5431 43.9274 68.369 44.0611C66.2392 45.703 64.1721 47.4846 62.1839 49.3816C62.0321 49.5274 61.8782 49.6752 61.7264 49.823C59.8435 51.6492 58.0335 53.5766 56.3106 55.587C56.177 55.7429 56.0413 55.9008 55.9077 56.0607C54.2334 58.0408 52.6461 60.0957 51.154 62.2094C51.0345 62.3754 50.9171 62.5435 50.8017 62.7115C49.3238 64.8333 47.947 67.0117 46.6796 69.2226C46.5764 69.3987 46.4772 69.5748 46.378 69.753C45.0984 72.0226 43.9364 74.3245 42.9079 76.6406C42.8228 76.8289 42.7398 77.0152 42.6589 77.2035C41.598 79.6411 40.6848 82.0888 39.9337 84.5223C39.873 84.7228 39.8123 84.9232 39.7536 85.1236C38.964 87.7799 38.3688 90.4159 37.9942 92.9972C37.9618 93.2159 37.9314 93.4325 37.9051 93.6512C37.652 95.5664 37.5225 97.4513 37.5225 99.2917C37.5225 100.363 37.567 101.397 37.654 102.397C37.6743 102.648 37.6986 102.897 37.7269 103.144C38.4801 110.002 41.2943 115.061 45.5742 118.074L45.5763 118.076C46.3254 118.602 47.119 119.066 47.9531 119.467L54.8448 123.498L56.3653 121.301C56.4442 121.301 56.5252 121.303 56.6042 121.303C62.2042 121.303 68.701 119.402 75.6332 115.401C96.6808 103.25 113.746 76.3329 113.746 55.2853C113.746 50.1996 112.75 45.9216 110.944 42.5305L112.501 40.2832L104.567 35.7744C104.419 35.6874 104.269 35.6023 104.117 35.5193L104.111 35.5173C101.404 34.0353 98.2154 33.27 94.6643 33.27Z" fill="#FFE840"/>
<path d="M106.278 98.959C123.1 76.5935 126.48 50.7479 113.827 41.2314C101.174 31.7149 77.2803 42.1311 60.4585 64.4967C43.6367 86.8623 40.2571 112.708 52.9099 122.224C65.5627 131.741 89.4566 121.325 106.278 98.959Z" fill="#FFD071"/>
<path d="M106.278 98.959C123.1 76.5935 126.48 50.7479 113.827 41.2314C101.174 31.7149 77.2803 42.1311 60.4585 64.4967C43.6367 86.8623 40.2571 112.708 52.9099 122.224C65.5627 131.741 89.4566 121.325 106.278 98.959Z" fill="#FFE840"/>
<path d="M84.3408 115.047C75.4468 120.182 67.0832 121.546 60.7949 118.888C54.5045 116.23 51.0425 109.866 51.0425 100.972C51.0425 92.0784 54.5065 81.7165 60.7949 71.7961C67.0853 61.8756 75.4468 53.5829 84.3408 48.4486C93.2348 43.3142 101.598 41.9497 107.887 44.608C114.177 47.2662 117.639 53.6295 117.639 62.5235C117.639 71.4175 114.175 81.7793 107.887 91.6998C101.598 101.62 93.2348 109.911 84.3408 115.047ZM84.3408 50.2808C66.9901 60.2985 52.8747 82.5648 52.8747 99.9155C52.8747 117.266 66.9901 123.233 84.3408 113.215C101.691 103.197 115.807 80.931 115.807 63.5803C115.807 46.2296 101.691 40.2632 84.3408 50.2808Z" fill="#FF9D4D"/>
<path d="M89.0033 76.1182V81.1938C88.8981 81.2444 88.7887 81.3031 88.6794 81.3659L85.8936 82.9734V78.2298L87.4606 77.3248C88.0214 77.0029 88.5357 76.6 89.0033 76.1182Z" fill="#D1975D"/>
<path d="M96.7937 76.8755C95.7632 76.1204 94.3642 75.9948 92.5947 76.4929C94.0443 75.017 95.1457 73.4034 95.9009 71.648C96.654 69.8927 97.0326 68.2609 97.0326 66.7526C97.0326 65.795 96.8646 64.9426 96.5305 64.1915C96.1965 63.4404 95.7247 62.8715 95.1174 62.4828C94.508 62.0941 93.769 61.9199 92.8984 61.9584C92.0279 61.9969 91.0561 62.3269 89.983 62.9464L89.0011 63.5133V58.5024L85.8913 60.2982V65.3091L82.1094 67.4936V62.4828L78.9997 64.2786V69.2894L73.4482 72.4943V103.387L78.9997 100.183V105.384L82.1094 103.588V98.3867L85.8913 96.2022V101.403L89.0011 99.6076V94.3943C90.1308 93.6958 91.2059 92.9062 92.2242 92.0235C93.4268 90.9808 94.4857 89.8612 95.4008 88.6667C96.3139 87.4722 97.0326 86.2311 97.555 84.9435C98.0773 83.6559 98.3385 82.3601 98.3385 81.0543C98.3385 79.0236 97.8222 77.6307 96.7937 76.8755ZM79.4552 74.1585L87.7216 69.3866C88.1852 69.1194 88.6104 68.9554 89.0031 68.8906C89.4222 68.8217 89.7988 68.8724 90.1369 69.0364C90.7888 69.3562 91.1168 70.1094 91.1168 71.2998C91.1168 72.5186 90.7605 73.6807 90.0498 74.7861C89.732 75.2822 89.3838 75.7256 89.0031 76.1163C88.5355 76.5982 88.0212 77.0011 87.4604 77.325L82.1114 80.4125L79.4552 81.9451V74.1585ZM91.9853 85.1561C91.7829 85.7675 91.5055 86.3526 91.1593 86.9154C90.8111 87.4803 90.3981 88.0006 89.9203 88.4804C89.6287 88.772 89.323 89.0352 89.0052 89.268C88.8007 89.4178 88.5921 89.5535 88.3775 89.677L85.8974 91.1084L79.4592 94.8255V86.6887L82.1155 85.1561L88.6832 81.364C88.7926 81.3013 88.9019 81.2425 89.0072 81.1919C89.404 80.9996 89.7765 80.8882 90.1187 80.8619C90.554 80.8275 90.9305 80.9085 91.2504 81.1008C91.5703 81.2932 91.8233 81.5908 92.0116 81.9876C92.1999 82.3864 92.2951 82.8622 92.2951 83.4129C92.2911 83.9656 92.1878 84.5467 91.9853 85.1561Z" fill="#FF9D4D"/>
<path d="M87.1626 44.6116L86.8569 45.14L76.082 38.9205C76.2906 38.8011 76.4971 38.6856 76.7036 38.5723L87.1626 44.6116Z" fill="#FFE840"/>
<path d="M77.6437 48.7115L77.338 49.2399L68.3691 44.061C68.5433 43.9274 68.7194 43.7918 68.8955 43.6602L77.6437 48.7115Z" fill="#FFE840"/>
<path d="M71.0153 54.4818L70.7096 55.0102L61.7266 49.8232C61.8784 49.6754 62.0323 49.5296 62.1841 49.3818L71.0153 54.4818Z" fill="#FFE840"/>
<path d="M64.3866 60.2516L64.0809 60.78L55.9097 56.0607C56.0433 55.9027 56.1769 55.7448 56.3126 55.5869L64.3866 60.2516Z" fill="#FFE840"/>
<path d="M60.6432 67.688L60.3374 68.2164L50.8037 62.7116C50.9191 62.5435 51.0386 62.3755 51.156 62.2095L60.6432 67.688Z" fill="#FFE840"/>
<path d="M58.2359 75.9443L57.9302 76.4727L46.3779 69.7531C46.4771 69.5749 46.5763 69.3988 46.6796 69.2227L58.2359 75.9443Z" fill="#FFE840"/>
<path d="M53.5327 82.7751L53.227 83.3035L42.6587 77.2035C42.7397 77.0152 42.8227 76.8289 42.9077 76.6406L53.5327 82.7751Z" fill="#FFE840"/>
<path d="M51.7449 91.3412L51.4392 91.8697L39.7554 85.1238C39.8141 84.9233 39.8748 84.7229 39.9355 84.5225L51.7449 91.3412Z" fill="#FFE840"/>
<path d="M48.7266 99.1923L48.4209 99.7207L37.9072 93.651C37.9335 93.4344 37.964 93.2157 37.9963 92.9971L48.7266 99.1923Z" fill="#FFE840"/>
<path d="M49.1757 109.048L48.87 109.577L37.7287 103.145C37.7003 102.898 37.676 102.649 37.6558 102.397L49.1757 109.048Z" fill="#FFE840"/>
<path d="M96.3164 40.2855L96.0107 40.8139L85.5254 34.7604C85.7947 34.6774 86.0639 34.5964 86.3312 34.5215L96.3164 40.2855Z" fill="#FFE840"/>
<path d="M147.054 224C166.518 224 182.296 214.891 182.296 203.653C182.296 192.416 166.518 183.306 147.054 183.306C127.591 183.306 111.812 192.416 111.812 203.653C111.812 214.891 127.591 224 147.054 224Z" fill="#E3DFEA"/>
<path d="M89.4021 86.76L86.43 84.2272C86.1911 84.0227 85.9947 83.7717 85.855 83.4903L85.695 83.1663C85.4541 82.6825 85.5128 82.1014 85.8428 81.6742L86.8106 80.4251C86.8369 80.3927 86.8693 80.3664 86.9078 80.3481L88.5355 79.6375C88.6611 79.5829 88.7198 79.4371 88.6651 79.3116L86.598 74.4303C86.5474 74.3108 86.596 74.1732 86.7114 74.1124C87.0191 73.9505 87.3997 74.0577 87.5759 74.3574L90.1228 78.6617C90.1329 78.6778 90.1431 78.692 90.1572 78.7062L91.6655 80.2935C91.8234 80.4595 92.1049 80.3421 92.0968 80.1133L92.0239 77.8883C92.0077 77.3943 92.3235 76.9489 92.7973 76.8011L92.8439 76.7869C93.0058 76.7363 93.1719 76.8598 93.1678 77.0299L93.1435 78.4086C93.1354 78.8135 93.1941 79.2164 93.3176 79.6031L93.7326 80.911C93.8642 81.328 93.8197 81.7815 93.6092 82.1642L92.9349 83.385C92.9046 83.4417 92.8965 83.5085 92.9127 83.5713L93.2872 84.9784C93.3196 85.0978 93.2589 85.2213 93.1455 85.2719L89.6653 86.8025C89.5762 86.8369 89.4749 86.8227 89.4021 86.76Z" fill="#FFD0A6"/>
<path d="M148.372 98.8989L151.284 117.432C151.498 118.805 151.162 120.206 150.346 121.329L143.094 131.321L139.673 124.21L144.993 115.395L139.673 98.8989H148.372Z" fill="url(#paint0_linear)"/>
<path d="M136.802 200.691C136.806 200.628 136.806 200.566 136.8 200.501L134.869 193.698H128.795L128.884 194.498L129.165 196.992C127.507 196.468 125.687 196.729 124.244 197.711L123.644 198.191C123.146 198.582 123.017 199.193 123.183 199.707C123.318 200.122 123.644 200.477 124.136 200.62L132.437 203.53C134.47 204.443 136.792 202.991 136.804 200.798V200.774C136.808 200.772 136.806 200.738 136.802 200.691Z" fill="#281A10"/>
<path d="M146.473 191.125V191.149C146.461 193.348 144.139 194.8 142.106 193.88L134.018 191.048C133.852 190.532 133.981 189.922 134.479 189.532L135.079 189.052C136.595 188.021 138.526 187.784 140.251 188.418L146.402 190.688C146.42 190.74 146.432 190.795 146.444 190.848C146.467 190.935 146.473 191.125 146.473 191.125Z" fill="#281A10"/>
<path d="M147.635 192.032C147.639 191.969 147.639 191.906 147.633 191.842L145.702 185.039H139.628L139.717 185.839L139.998 188.333C138.34 187.809 136.52 188.07 135.077 189.052L134.477 189.532C133.979 189.922 133.85 190.534 134.016 191.048C134.151 191.463 134.477 191.817 134.969 191.961L143.27 194.87C145.303 195.784 147.625 194.332 147.637 192.139V192.115C147.639 192.115 147.639 192.079 147.635 192.032Z" fill="#281A10"/>
<path d="M147.639 186.889V186.93L139.231 186.782L134.384 164.585L132.914 137.635L146.602 135.987L146.578 136.267L144.179 163.613C145.203 167.014 145.997 170.474 146.566 173.977C147.135 177.473 147.467 181.01 147.574 184.559L147.639 186.889Z" fill="url(#paint1_linear)"/>
<path d="M147.639 186.889L141.541 186.782L136.694 164.584L133.54 137.838L146.576 136.267L144.177 163.613C145.202 167.014 145.995 170.474 146.564 173.976C147.133 177.473 147.465 181.01 147.572 184.559L147.639 186.889Z" fill="url(#paint2_linear)"/>
<path d="M136.808 195.089V195.148L127.375 194.982L121.935 170.078L120.281 139.84L135.64 137.998L135.603 138.389L132.925 168.988C134.075 172.811 134.964 176.692 135.603 180.62C136.237 184.543 136.612 188.511 136.729 192.494L136.808 195.089Z" fill="url(#paint3_linear)"/>
<path d="M136.808 195.089L130.58 194.982L125.14 170.077L123.492 139.84L135.603 138.389L132.925 168.988C134.075 172.811 134.963 176.692 135.603 180.619C136.237 184.543 136.612 188.511 136.729 192.494L136.808 195.089Z" fill="url(#paint4_linear)"/>
<path d="M128.713 97.1825C122.935 98.1746 118.661 103.864 118.556 109.725C118.378 119.663 117.222 134.876 118.611 144.424C118.807 145.77 119.906 146.803 121.263 146.896L126.128 147.23C133.289 147.72 137.32 143.576 144.07 141.13C146.724 140.168 148.42 137.563 148.224 134.747L145.485 117.716L148.372 98.8973C148.427 94.3319 144.128 90.961 139.707 92.1028L128.713 97.1825Z" fill="url(#paint5_linear)"/>
<path d="M139.049 92.6007L137.688 89.2885L139.654 83.6318C141.426 80.603 141.163 76.7989 138.992 74.0414C136.97 71.4722 133.668 70.2696 130.467 70.9397L126.614 71.7455C125.002 72.0836 123.986 73.683 124.367 75.2865L124.377 75.329C124.543 76.0234 124.577 76.728 124.484 77.4244L124.051 80.682C123.69 81.8198 123.626 83.0305 123.863 84.1987L124.14 85.5613C124.861 87.7863 127.244 89.0111 129.473 88.3025L130.175 96.7592L139.049 92.6007Z" fill="#FFD0A6"/>
<path d="M124.523 77.0114L127.199 79.2829C127.199 79.2829 127.637 80.9492 127.355 82.826C127.074 84.7048 130.706 87.1707 130.706 87.1707L132.795 89.8432C133.241 90.4121 133.939 90.7198 134.66 90.6631L137.106 90.4708C138.444 90.3655 139.606 89.5071 140.092 88.2559C140.533 87.1201 140.999 85.8061 141.086 85.134C141.173 84.4456 141.78 83.0527 142.345 81.8683C143.084 80.3195 143.295 78.5642 142.894 76.8939C142.653 75.8958 142.303 74.8592 141.795 74.1668C140.517 72.4196 140.25 70.5813 136.883 69.7917C133.516 69.0021 128.145 68.7571 126.774 69.5366C125.404 70.3181 125.602 70.8101 124.339 72.7779C123.073 74.7458 124.523 77.0114 124.523 77.0114Z" fill="#89603E"/>
<path d="M139.673 92.463L138.322 90.8271L129.967 94.2224L129.742 96.994L139.673 92.463Z" fill="#7B5BAA"/>
<path d="M127.501 84.5571L128.331 83.3524C128.663 82.8706 129.467 82.7613 129.977 83.1297C130.277 83.3464 130.4 83.6825 130.293 83.9942L129.193 87.2214L126.758 86.1828L127.501 84.5571Z" fill="#FFD0A6"/>
<path d="M121.522 111.939L100.895 108.609L100.14 108.487C98.9577 108.297 98.0263 107.483 97.6275 106.441L89.3389 86.6726L93.2362 84.7856L102.57 100.345L122.159 99.7493C125.545 99.5611 128.444 102.153 128.632 105.54C128.82 108.925 126.229 111.824 122.842 112.012C122.402 112.035 121.939 112.004 121.522 111.939Z" fill="url(#paint6_linear)"/>
<defs>
<filter id="filter0_b" x="-10" y="-10" width="642" height="260" filterUnits="userSpaceOnUse" color-interpolation-filters="sRGB">
<feFlood flood-opacity="0" result="BackgroundImageFix"/>
<feGaussianBlur in="BackgroundImage" stdDeviation="5"/>
<feComposite in2="SourceAlpha" operator="in" result="effect1_backgroundBlur"/>
<feBlend mode="normal" in="SourceGraphic" in2="effect1_backgroundBlur" result="shape"/>
</filter>
<filter id="filter1_b" x="457" y="152" width="164" height="88" filterUnits="userSpaceOnUse" color-interpolation-filters="sRGB">
<feFlood flood-opacity="0" result="BackgroundImageFix"/>
<feGaussianBlur in="BackgroundImage" stdDeviation="10"/>
<feComposite in2="SourceAlpha" operator="in" result="effect1_backgroundBlur"/>
<feBlend mode="normal" in="SourceGraphic" in2="effect1_backgroundBlur" result="shape"/>
</filter>
<filter id="filter2_b" x="193" y="152" width="164" height="88" filterUnits="userSpaceOnUse" color-interpolation-filters="sRGB">
<feFlood flood-opacity="0" result="BackgroundImageFix"/>
<feGaussianBlur in="BackgroundImage" stdDeviation="10"/>
<feComposite in2="SourceAlpha" operator="in" result="effect1_backgroundBlur"/>
<feBlend mode="normal" in="SourceGraphic" in2="effect1_backgroundBlur" result="shape"/>
</filter>
<linearGradient id="paint0_linear" x1="139.673" y1="115.11" x2="151.347" y2="115.11" gradientUnits="userSpaceOnUse">
<stop stop-color="#6A5EBF"/>
<stop offset="1" stop-color="#6E3AA5"/>
</linearGradient>
<linearGradient id="paint1_linear" x1="132.913" y1="161.46" x2="147.638" y2="161.46" gradientUnits="userSpaceOnUse">
<stop stop-color="#6A5EBF"/>
<stop offset="1" stop-color="#6E3AA5"/>
</linearGradient>
<linearGradient id="paint2_linear" x1="133.541" y1="161.578" x2="147.638" y2="161.578" gradientUnits="userSpaceOnUse">
<stop stop-color="#2E256B"/>
<stop offset="1" stop-color="#5A3087"/>
</linearGradient>
<linearGradient id="paint3_linear" x1="120.281" y1="166.573" x2="136.807" y2="166.573" gradientUnits="userSpaceOnUse">
<stop stop-color="#6A5EBF"/>
<stop offset="1" stop-color="#6E3AA5"/>
</linearGradient>
<linearGradient id="paint4_linear" x1="123.492" y1="166.739" x2="136.807" y2="166.739" gradientUnits="userSpaceOnUse">
<stop stop-color="#2E256B"/>
<stop offset="1" stop-color="#5A3087"/>
</linearGradient>
<linearGradient id="paint5_linear" x1="117.937" y1="119.576" x2="148.373" y2="119.576" gradientUnits="userSpaceOnUse">
<stop stop-color="#2E256B"/>
<stop offset="1" stop-color="#5A3087"/>
</linearGradient>
<linearGradient id="paint6_linear" x1="89.3369" y1="98.401" x2="128.641" y2="98.401" gradientUnits="userSpaceOnUse">
<stop stop-color="#6A5EBF"/>
<stop offset="1" stop-color="#6E3AA5"/>
</linearGradient>
</defs>
</svg>
