<svg width="165" height="200" viewBox="0 0 165 200" fill="none" xmlns="http://www.w3.org/2000/svg">
<path d="M33.3853 71.402L34.0285 70.4759L30.7569 68.6171C30.6969 68.5807 30.6347 68.5464 30.5726 68.5121L30.5704 68.5099C27.6912 66.9385 23.4956 67.3222 18.8263 70.0192C10.1458 75.0316 3.10742 86.1326 3.10742 94.8131C3.10742 98.4577 4.34658 101.095 6.42828 102.559H6.43042C6.73914 102.775 7.06716 102.968 7.41232 103.133L10.2551 104.795L10.8833 103.89C13.2158 103.914 15.9299 103.129 18.8284 101.457C27.509 96.4446 34.5473 85.3436 34.5473 76.6631C34.5409 74.5642 34.1293 72.7998 33.3853 71.402Z" fill="#FF9D4D"/>
<path d="M26.6709 67.8346C28.0902 67.8346 29.3593 68.1347 30.4463 68.7286L30.4591 68.735C30.5149 68.7672 30.5706 68.7972 30.6285 68.8315L33.6621 70.5551L33.1776 71.2562L33.0897 71.3827L33.1626 71.5177C33.9108 72.9198 34.2881 74.6499 34.2881 76.6587C34.2881 85.245 27.2926 96.2709 18.6957 101.234C15.9751 102.805 13.306 103.635 10.9735 103.635H10.877L10.7441 103.633L10.6691 103.742L10.1738 104.456L7.53257 102.913L7.524 102.908L7.51542 102.904C7.18312 102.745 6.86583 102.559 6.56997 102.351L6.55497 102.34C4.80985 101.105 3.73149 99.0408 3.43778 96.3695C3.42706 96.2709 3.41634 96.1701 3.40776 96.0672C3.37132 95.6642 3.35417 95.2397 3.35417 94.8088C3.35417 94.0713 3.40561 93.2995 3.51066 92.5127C3.52138 92.4248 3.53424 92.3369 3.54711 92.249C3.69718 91.2114 3.93944 90.1308 4.26531 89.0353C4.28889 88.9539 4.31461 88.8724 4.3382 88.7909C4.64048 87.809 5.01566 86.8014 5.45301 85.7981C5.48517 85.7209 5.51948 85.6459 5.55378 85.5687C5.97398 84.6254 6.44992 83.6778 6.97517 82.7495C7.0159 82.6787 7.05662 82.6059 7.09736 82.533C7.61618 81.6282 8.1843 80.7321 8.78673 79.866C8.8339 79.7974 8.88321 79.7288 8.93038 79.6602C9.54138 78.794 10.1974 77.9472 10.877 77.1411C10.9306 77.0768 10.9863 77.0125 11.0421 76.9482C11.7496 76.1228 12.4956 75.3295 13.2589 74.5878L13.4475 74.4077C14.2643 73.6273 15.1154 72.8941 15.9773 72.2317C16.048 72.1759 16.1209 72.1223 16.1938 72.0687C17.0964 71.387 18.0225 70.7695 18.9508 70.2336C19.0109 70.1993 19.0687 70.165 19.1309 70.1307C19.2145 70.0835 19.3003 70.0342 19.3839 69.9892C20.5909 69.3267 21.7872 68.8079 22.9384 68.4477L22.9749 68.437C23.0842 68.4027 23.1936 68.3705 23.3029 68.3405C24.4777 68.0061 25.6097 67.8346 26.6709 67.8346ZM26.6709 67.5837C25.599 67.5837 24.4477 67.7531 23.2343 68.0983C23.125 68.1304 23.0135 68.1626 22.902 68.1969C21.7379 68.5571 20.5201 69.0802 19.2638 69.7683C19.1781 69.8155 19.0945 69.8627 19.0087 69.912C18.9465 69.9463 18.8865 69.9806 18.8243 70.017C17.8746 70.5637 16.9463 71.1854 16.0437 71.8672C15.9709 71.9208 15.898 71.9765 15.8272 72.0323C14.9482 72.7097 14.0971 73.4451 13.276 74.2276C13.2138 74.2876 13.1495 74.3477 13.0873 74.4098C12.3113 75.1623 11.5652 75.9577 10.8534 76.7874C10.7977 76.8517 10.7419 76.916 10.6883 76.9825C9.99802 77.7993 9.342 78.6461 8.72886 79.5187C8.67955 79.5873 8.63024 79.6559 8.58307 79.7266C7.97421 80.6013 7.40608 81.4996 6.88297 82.4129C6.84009 82.4858 6.79937 82.5587 6.75864 82.6316C6.23124 83.5663 5.75102 84.5182 5.32653 85.4722C5.29223 85.5494 5.25792 85.6266 5.22362 85.7037C4.78627 86.7092 4.40895 87.719 4.10023 88.7223C4.0745 88.8059 4.04878 88.8874 4.0252 88.971C3.69933 90.0665 3.45493 91.1535 3.30057 92.219C3.28771 92.309 3.27483 92.3991 3.26411 92.4891C3.15906 93.2802 3.10547 94.0563 3.10547 94.8152C3.10547 95.2568 3.12262 95.6835 3.15907 96.0951C3.16764 96.198 3.17836 96.3009 3.18908 96.4038C3.49994 99.2316 4.65979 101.318 6.42419 102.561C6.73291 102.778 7.06092 102.97 7.40394 103.136L10.2467 104.797L10.8749 103.89C10.907 103.89 10.9413 103.89 10.9735 103.89C13.2824 103.89 15.9623 103.106 18.8222 101.457C27.5027 96.4445 34.5411 85.3436 34.5411 76.663C34.5411 74.5663 34.1294 72.8019 33.3855 71.402L34.0265 70.4758L30.755 68.6171C30.695 68.5806 30.6328 68.5463 30.5706 68.512H30.5685C29.4494 67.8989 28.1352 67.5837 26.6709 67.5837Z" fill="#FFE840"/>
<path d="M31.4607 94.6758C38.3985 85.4515 39.7922 74.7918 34.5735 70.8667C29.3547 66.9415 19.4999 71.2374 12.5621 80.4616C5.62423 89.6859 4.2306 100.346 9.44931 104.271C14.668 108.196 24.5228 103.9 31.4607 94.6758Z" fill="#FFD071"/>
<path d="M31.4607 94.6758C38.3985 85.4515 39.7922 74.7918 34.5735 70.8667C29.3547 66.9415 19.4999 71.2374 12.5621 80.4616C5.62423 89.6859 4.2306 100.346 9.44931 104.271C14.668 108.196 24.5228 103.9 31.4607 94.6758Z" fill="#FFE840"/>
<path d="M22.4133 101.309C18.7452 103.427 15.2957 103.989 12.7016 102.893C10.1075 101.798 8.67969 99.1737 8.67969 95.5055C8.67969 91.8373 10.1075 87.5646 12.7016 83.4719C15.2957 79.3814 18.7452 75.9598 22.4133 73.8438C26.0815 71.7257 29.531 71.164 32.1251 72.2595C34.7192 73.355 36.147 75.9791 36.147 79.6473C36.147 83.3154 34.7192 87.5882 32.1251 91.6808C29.531 95.7713 26.0815 99.1908 22.4133 101.309ZM22.4133 74.5985C15.2571 78.7297 9.43648 87.9119 9.43648 95.0681C9.43648 102.224 15.2571 104.683 22.4133 100.552C29.5696 96.4209 35.3902 87.2387 35.3902 80.0825C35.3902 72.9262 29.5696 70.4672 22.4133 74.5985Z" fill="#FF9D4D"/>
<path d="M24.3357 85.2535V87.346C24.2929 87.3674 24.2478 87.391 24.2028 87.4167L23.0537 88.0792V86.124L23.699 85.7509C23.9305 85.618 24.1428 85.4529 24.3357 85.2535Z" fill="#D1975D"/>
<path d="M27.5471 85.5666C27.1226 85.2557 26.5459 85.2021 25.8148 85.4079C26.413 84.7991 26.8675 84.1345 27.1783 83.4098C27.4892 82.6852 27.6457 82.012 27.6457 81.3903C27.6457 80.9958 27.5771 80.6442 27.4399 80.3334C27.3027 80.0247 27.1076 79.7888 26.8567 79.628C26.6059 79.4673 26.2993 79.3965 25.9413 79.4115C25.5811 79.4287 25.1824 79.5637 24.7386 79.8188L24.3334 80.0525V77.9858L23.0514 78.7255V80.7922L21.4906 81.6926V79.6259L20.2086 80.3655V82.4322L17.9189 83.755V96.496L20.2086 95.1733V97.3193L21.4906 96.5796V94.4336L23.0514 93.5332V95.6792L24.3334 94.9396V92.7893C24.7986 92.502 25.2424 92.1761 25.6626 91.8117C26.1578 91.3808 26.5952 90.9198 26.9725 90.4267C27.3498 89.9336 27.6457 89.4213 27.8601 88.8917C28.0745 88.36 28.1838 87.8262 28.1838 87.2881C28.186 86.452 27.9716 85.8774 27.5471 85.5666ZM20.3973 84.4453L23.806 82.4772C23.9968 82.3679 24.1726 82.2993 24.3334 82.2736C24.5071 82.2457 24.6614 82.265 24.8008 82.3336C25.0709 82.4665 25.2038 82.7774 25.2038 83.2662C25.2038 83.7679 25.058 84.2481 24.7643 84.7047C24.6336 84.9084 24.4899 85.0928 24.3334 85.2536C24.1405 85.4529 23.9282 85.618 23.6967 85.7531L21.4906 87.0265L20.3951 87.659V84.4453H20.3973ZM25.5661 88.9818C25.4825 89.2326 25.3689 89.4748 25.2253 89.7085C25.0816 89.9401 24.9101 90.1566 24.7129 90.3538C24.5928 90.4739 24.4663 90.5832 24.3356 90.6776C24.2519 90.7397 24.164 90.7955 24.0761 90.8469L23.0535 91.4386L20.3973 92.9715V89.6163L21.4928 88.9839L24.2026 87.421C24.2477 87.3953 24.2927 87.3717 24.3356 87.3503C24.4985 87.2709 24.6529 87.2259 24.7943 87.2131C24.9744 87.2002 25.1288 87.2324 25.2617 87.3117C25.3925 87.391 25.4975 87.5132 25.5769 87.6783C25.654 87.8434 25.6926 88.0385 25.6926 88.2657C25.6905 88.4908 25.6476 88.7309 25.5661 88.9818Z" fill="#FF9D4D"/>
<path d="M23.5776 72.2595L23.4511 72.4782L19.0068 69.912C19.0926 69.8626 19.1783 69.8155 19.262 69.7683L23.5776 72.2595Z" fill="#FFE840"/>
<path d="M19.6499 73.9511L19.5234 74.1698L15.8252 72.0345C15.8981 71.9787 15.9688 71.923 16.0417 71.8694L19.6499 73.9511Z" fill="#FFE840"/>
<path d="M16.9161 76.3308L16.7896 76.5495L13.085 74.4099C13.1471 74.3499 13.2114 74.2877 13.2736 74.2277L16.9161 76.3308Z" fill="#FFE840"/>
<path d="M14.1822 78.7104L14.0557 78.9291L10.6855 76.9824C10.7413 76.916 10.7949 76.8517 10.8506 76.7874L14.1822 78.7104Z" fill="#FFE840"/>
<path d="M12.6394 81.7761L12.5129 81.9948L8.58105 79.7244C8.62822 79.6558 8.67753 79.5851 8.72684 79.5165L12.6394 81.7761Z" fill="#FFE840"/>
<path d="M11.646 85.1828L11.5195 85.4015L6.75586 82.6294C6.79659 82.5566 6.83733 82.4837 6.88021 82.4108L11.646 85.1828Z" fill="#FFE840"/>
<path d="M9.70569 87.9999L9.5792 88.2185L5.2207 85.7016C5.25501 85.6244 5.28932 85.5473 5.32362 85.4701L9.70569 87.9999Z" fill="#FFE840"/>
<path d="M8.96838 91.5308L8.84188 91.7494L4.02246 88.9667C4.04604 88.8831 4.07176 88.8016 4.09749 88.718L8.96838 91.5308Z" fill="#FFE840"/>
<path d="M7.72331 94.7702L7.59682 94.9888L3.25977 92.4848C3.27048 92.3947 3.28334 92.3047 3.29621 92.2147L7.72331 94.7702Z" fill="#FFE840"/>
<path d="M7.91001 98.835L7.78351 99.0537L3.1892 96.3995C3.17848 96.2988 3.16776 96.1959 3.15918 96.0908L7.91001 98.835Z" fill="#FFE840"/>
<path d="M27.352 70.4758L27.2256 70.6945L22.9014 68.1969C23.0128 68.1626 23.1243 68.1283 23.2337 68.0983L27.352 70.4758Z" fill="#FFE840"/>
<path d="M141.807 7.64532L142.448 6.71916L139.177 4.86043C139.117 4.82398 139.055 4.78968 138.992 4.75538L138.99 4.75323C136.111 3.18177 131.916 3.56553 127.246 6.26252C118.566 11.2749 111.527 22.3759 111.527 31.0564C111.527 34.701 112.766 37.3379 114.848 38.8022H114.85C115.159 39.0187 115.487 39.2117 115.832 39.3768L118.675 41.0383L119.303 40.1336C121.636 40.1571 124.35 39.3725 127.248 37.7003C135.929 32.6879 142.967 21.5869 142.967 12.9064C142.963 10.8075 142.551 9.04312 141.807 7.64532Z" fill="#FF9D4D"/>
<path d="M135.091 4.08013C136.51 4.08013 137.779 4.38027 138.866 4.97412L138.879 4.98055C138.935 5.01057 138.991 5.04272 139.048 5.07703L142.082 6.8007L141.597 7.50175L141.51 7.62823L141.582 7.7633C142.331 9.16539 142.708 10.8955 142.708 12.9043C142.708 21.4905 135.713 32.5164 127.116 37.4795C124.395 39.051 121.726 39.8806 119.393 39.8806H119.297L119.164 39.8785L119.089 39.9878L118.594 40.7018L115.952 39.1582L115.944 39.1539L115.935 39.1496C115.603 38.9909 115.286 38.8044 114.99 38.5965L114.977 38.5879C113.23 37.353 112.154 35.2885 111.86 32.6172C111.849 32.5186 111.838 32.4178 111.83 32.3149C111.793 31.9119 111.776 31.4895 111.776 31.0565C111.776 30.319 111.828 29.5472 111.933 28.7604C111.943 28.6725 111.956 28.5846 111.969 28.4967C112.119 27.4591 112.362 26.3785 112.687 25.283C112.711 25.2016 112.737 25.1201 112.76 25.0386C113.063 24.0567 113.438 23.0491 113.875 22.0458C113.907 21.9686 113.942 21.8936 113.976 21.8164C114.396 20.8731 114.872 19.9255 115.397 18.9972C115.438 18.9264 115.479 18.8535 115.519 18.7807C116.038 17.8759 116.604 16.9798 117.209 16.1137C117.256 16.0451 117.305 15.9765 117.352 15.9079C117.963 15.0417 118.619 14.1949 119.299 13.3888C119.353 13.3245 119.408 13.2602 119.464 13.1959C120.172 12.3705 120.918 11.5772 121.681 10.8355L121.87 10.6554C122.686 9.87501 123.538 9.14395 124.399 8.47935C124.47 8.42361 124.543 8.37001 124.616 8.31642C125.518 7.63467 126.447 7.01723 127.369 6.48341C127.429 6.4491 127.491 6.4148 127.553 6.37836C127.637 6.33119 127.722 6.28188 127.806 6.23686C129.013 5.5744 130.209 5.05559 131.361 4.69542L131.397 4.6847C131.506 4.6504 131.616 4.61824 131.725 4.58822C132.898 4.24949 134.032 4.08013 135.091 4.08013ZM135.091 3.82715C134.019 3.82715 132.868 3.99651 131.654 4.34168C131.545 4.37384 131.433 4.40599 131.322 4.4403C130.158 4.80047 128.94 5.32357 127.684 6.01175C127.598 6.05892 127.514 6.10608 127.429 6.15539C127.366 6.1897 127.306 6.224 127.244 6.26044C126.295 6.80713 125.366 7.42885 124.464 8.11061C124.391 8.1642 124.318 8.21994 124.247 8.27568C123.368 8.95315 122.517 9.6885 121.696 10.471C121.634 10.531 121.569 10.5911 121.507 10.6532C120.731 11.4057 119.985 12.2011 119.273 13.0308C119.218 13.0951 119.162 13.1594 119.108 13.2259C118.418 14.0427 117.762 14.8895 117.149 15.7621C117.099 15.8307 117.05 15.8993 117.003 15.97C116.394 16.8447 115.826 17.743 115.303 18.6563C115.26 18.7292 115.219 18.8021 115.179 18.875C114.651 19.8097 114.171 20.7616 113.746 21.7156C113.712 21.7928 113.678 21.87 113.644 21.9472C113.206 22.9526 112.829 23.9624 112.52 24.9657C112.494 25.0493 112.469 25.1308 112.445 25.2144C112.119 26.3099 111.875 27.3969 111.72 28.4624C111.708 28.5524 111.695 28.6425 111.684 28.7325C111.579 29.5236 111.525 30.2997 111.525 31.0586C111.525 31.5003 111.543 31.9269 111.579 32.3385C111.588 32.4414 111.598 32.5443 111.609 32.6472C111.92 35.475 113.08 37.561 114.844 38.8044C115.153 39.021 115.481 39.2139 115.824 39.379L118.667 41.0405L119.295 40.1336C119.327 40.1336 119.361 40.1336 119.393 40.1336C121.702 40.1336 124.382 39.349 127.242 37.7003C135.923 32.688 142.961 21.587 142.961 12.9064C142.961 10.8097 142.549 9.04533 141.805 7.64539L142.446 6.71923L139.175 4.86049C139.115 4.82405 139.053 4.78975 138.991 4.75545H138.988C137.871 4.1423 136.557 3.82715 135.091 3.82715Z" fill="#FFE840"/>
<path d="M139.88 30.9162C146.817 21.6919 148.211 11.0322 142.992 7.10703C137.774 3.1819 127.919 7.47771 120.981 16.702C114.043 25.9263 112.65 36.586 117.868 40.5111C123.087 44.4363 132.942 40.1405 139.88 30.9162Z" fill="#FFD071"/>
<path d="M139.88 30.9162C146.817 21.6919 148.211 11.0322 142.992 7.10703C137.774 3.1819 127.919 7.47771 120.981 16.702C114.043 25.9263 112.65 36.586 117.868 40.5111C123.087 44.4363 132.942 40.1405 139.88 30.9162Z" fill="#FFE840"/>
<path d="M130.835 37.5524C127.167 39.6705 123.718 40.2322 121.123 39.1367C118.529 38.0412 117.102 35.4171 117.102 31.7489C117.102 28.0807 118.529 23.808 121.123 19.7154C123.718 15.6248 127.167 12.2032 130.835 10.0872C134.503 7.96908 137.953 7.40738 140.547 8.5029C143.141 9.59842 144.569 12.2225 144.569 15.8907C144.569 19.5589 143.141 23.8316 140.547 27.9242C137.951 32.0148 134.503 35.4342 130.835 37.5524ZM130.835 10.8419C123.679 14.9731 117.858 24.1553 117.858 31.3116C117.858 38.4678 123.679 40.9268 130.835 36.7956C137.991 32.6643 143.812 23.4821 143.812 16.3259C143.812 9.16965 137.989 6.71063 130.835 10.8419Z" fill="#FF9D4D"/>
<path d="M132.759 21.4967V23.5891C132.716 23.6106 132.671 23.6341 132.626 23.6599L131.477 24.3223V22.3671L132.122 21.9941C132.353 21.8633 132.566 21.6961 132.759 21.4967Z" fill="#D1975D"/>
<path d="M135.97 21.8099C135.545 21.499 134.969 21.4454 134.238 21.6512C134.836 21.0424 135.29 20.3778 135.601 19.6531C135.912 18.9285 136.069 18.2553 136.069 17.6336C136.069 17.2391 136 16.8875 135.863 16.5767C135.726 16.2679 135.53 16.0321 135.28 15.8713C135.029 15.7105 134.722 15.6398 134.364 15.6548C134.004 15.672 133.605 15.807 133.161 16.0621L132.756 16.2958V14.2291L131.474 14.9688V17.0355L129.913 17.9359V15.8692L128.631 16.6088V18.6755L126.342 19.9983V32.7393L128.631 31.4165V33.5626L129.913 32.8229V30.6769L131.474 29.7765V31.9225L132.756 31.1829V29.0326C133.221 28.7453 133.665 28.4194 134.085 28.055C134.583 27.624 135.018 27.1631 135.395 26.67C135.773 26.1769 136.069 25.6645 136.283 25.135C136.497 24.6033 136.607 24.0695 136.607 23.5314C136.607 22.6953 136.394 22.1229 135.97 21.8099ZM128.82 20.6908L132.229 18.7227C132.42 18.6133 132.595 18.5447 132.756 18.519C132.93 18.4911 133.084 18.5104 133.224 18.579C133.494 18.712 133.627 19.0228 133.627 19.5116C133.627 20.0133 133.481 20.4935 133.187 20.9502C133.056 21.1538 132.913 21.3382 132.756 21.499C132.563 21.6984 132.351 21.8635 132.12 21.9985L129.913 23.272L128.818 23.9044V20.6908H128.82ZM133.987 25.225C133.903 25.4759 133.79 25.7181 133.646 25.9518C133.502 26.1834 133.331 26.3999 133.134 26.5971C133.014 26.7172 132.887 26.8265 132.756 26.9208C132.673 26.983 132.585 27.0388 132.497 27.0902L131.474 27.6819L128.818 29.2148V25.8596L129.913 25.2272L132.623 23.6643C132.668 23.6386 132.713 23.615 132.756 23.5936C132.919 23.5142 133.074 23.4692 133.215 23.4564C133.395 23.4435 133.549 23.4756 133.682 23.555C133.813 23.6343 133.918 23.7565 133.998 23.9216C134.075 24.0867 134.113 24.2817 134.113 24.509C134.113 24.7341 134.07 24.9742 133.987 25.225Z" fill="#FF9D4D"/>
<path d="M131.999 8.50497L131.873 8.72365L127.429 6.15743C127.514 6.10812 127.6 6.06096 127.684 6.01379L131.999 8.50497Z" fill="#FFE840"/>
<path d="M128.072 10.1944L127.945 10.413L124.247 8.27775C124.32 8.22201 124.391 8.16627 124.464 8.11267L128.072 10.1944Z" fill="#FFE840"/>
<path d="M125.338 12.5741L125.211 12.7928L121.507 10.6532C121.569 10.5931 121.633 10.531 121.695 10.4709L125.338 12.5741Z" fill="#FFE840"/>
<path d="M122.604 14.9538L122.478 15.1725L119.107 13.2259C119.163 13.1594 119.217 13.0951 119.273 13.0308L122.604 14.9538Z" fill="#FFE840"/>
<path d="M121.061 18.0217L120.935 18.2404L117.003 15.97C117.05 15.9014 117.099 15.8307 117.149 15.7621L121.061 18.0217Z" fill="#FFE840"/>
<path d="M120.068 21.4262L119.941 21.6449L115.178 18.8728C115.218 18.8 115.259 18.7271 115.302 18.6542L120.068 21.4262Z" fill="#FFE840"/>
<path d="M118.129 24.2433L118.002 24.4619L113.644 21.945C113.678 21.8679 113.71 21.7907 113.746 21.7135L118.129 24.2433Z" fill="#FFE840"/>
<path d="M117.39 27.7763L117.264 27.9949L112.444 25.2122C112.468 25.1286 112.494 25.0471 112.519 24.9635L117.39 27.7763Z" fill="#FFE840"/>
<path d="M116.145 31.0136L116.019 31.2323L111.682 28.7283C111.692 28.6382 111.705 28.5482 111.718 28.4581L116.145 31.0136Z" fill="#FFE840"/>
<path d="M116.332 35.0805L116.205 35.2992L111.611 32.6472C111.6 32.5465 111.59 32.4436 111.581 32.3385L116.332 35.0805Z" fill="#FFE840"/>
<path d="M135.772 6.71916L135.645 6.93784L131.323 4.44237C131.435 4.40807 131.546 4.37591 131.656 4.34375L135.772 6.71916Z" fill="#FFE840"/>
<path d="M154.132 109.196L154.776 108.27L151.504 106.411C151.444 106.375 151.382 106.341 151.32 106.306L151.318 106.304C148.438 104.733 144.243 105.116 139.573 107.813C130.893 112.826 123.854 123.927 123.854 132.607C123.854 136.252 125.094 138.889 127.175 140.353H127.177C127.486 140.57 127.814 140.763 128.159 140.928L131.002 142.589L131.63 141.685C133.963 141.708 136.677 140.923 139.576 139.251C148.256 134.239 155.294 123.138 155.294 114.457C155.29 112.358 154.878 110.596 154.132 109.196Z" fill="#FF9D4D"/>
<path d="M147.418 105.631C148.837 105.631 150.106 105.931 151.193 106.525L151.208 106.531C151.264 106.561 151.32 106.594 151.378 106.628L154.411 108.352L153.927 109.053L153.839 109.179L153.912 109.314C154.66 110.716 155.037 112.446 155.037 114.455C155.037 123.041 148.042 134.067 139.445 139.03C136.724 140.602 134.055 141.432 131.723 141.432H131.626L131.493 141.429L131.418 141.539L130.923 142.253L128.282 140.709L128.273 140.705L128.265 140.7C127.932 140.542 127.615 140.355 127.319 140.147L127.306 140.139C125.559 138.904 124.483 136.839 124.189 134.168C124.178 134.069 124.168 133.969 124.159 133.866C124.123 133.463 124.106 133.04 124.106 132.607C124.106 131.87 124.157 131.098 124.262 130.311C124.273 130.223 124.286 130.135 124.298 130.048C124.449 129.01 124.691 127.929 125.017 126.834C125.04 126.752 125.066 126.671 125.09 126.59C125.392 125.608 125.767 124.6 126.204 123.597C126.237 123.519 126.271 123.444 126.305 123.367C126.725 122.424 127.201 121.476 127.727 120.548C127.767 120.477 127.808 120.404 127.849 120.332C128.368 119.427 128.934 118.531 129.538 117.665C129.585 117.596 129.635 117.527 129.682 117.459C130.293 116.593 130.949 115.746 131.628 114.94C131.682 114.875 131.738 114.811 131.793 114.747C132.501 113.921 133.247 113.128 134.01 112.386L134.199 112.206C135.016 111.426 135.867 110.695 136.729 110.03C136.799 109.975 136.872 109.921 136.945 109.865C137.848 109.183 138.774 108.566 139.698 108.032C139.758 107.998 139.818 107.964 139.882 107.927C139.966 107.878 140.052 107.831 140.135 107.786C141.342 107.123 142.539 106.604 143.69 106.244L143.726 106.233C143.836 106.199 143.945 106.167 144.054 106.137C145.225 105.8 146.359 105.631 147.418 105.631ZM147.418 105.378C146.346 105.378 145.195 105.547 143.981 105.893C143.872 105.925 143.761 105.957 143.649 105.991C142.485 106.351 141.267 106.874 140.011 107.563C139.925 107.61 139.842 107.657 139.756 107.706C139.694 107.741 139.634 107.775 139.571 107.811C138.622 108.358 137.693 108.98 136.791 109.662C136.718 109.715 136.645 109.771 136.574 109.827C135.695 110.504 134.844 111.239 134.023 112.022C133.961 112.082 133.897 112.142 133.834 112.204C133.058 112.957 132.312 113.752 131.6 114.582C131.545 114.646 131.489 114.71 131.435 114.777C130.745 115.594 130.089 116.44 129.476 117.313C129.427 117.382 129.377 117.45 129.33 117.521C128.721 118.396 128.153 119.294 127.63 120.207C127.587 120.28 127.546 120.353 127.506 120.426C126.978 121.361 126.498 122.312 126.074 123.267C126.039 123.344 126.005 123.421 125.971 123.498C125.533 124.504 125.156 125.513 124.847 126.517C124.822 126.6 124.796 126.682 124.772 126.765C124.446 127.861 124.202 128.948 124.048 130.013C124.035 130.103 124.022 130.193 124.011 130.283C123.906 131.075 123.853 131.851 123.853 132.61C123.853 133.051 123.87 133.478 123.906 133.889C123.915 133.992 123.925 134.095 123.936 134.198C124.247 137.026 125.407 139.112 127.171 140.355C127.48 140.572 127.808 140.765 128.151 140.93L130.994 142.591L131.622 141.685C131.654 141.685 131.688 141.685 131.721 141.685C134.03 141.685 136.709 140.9 139.569 139.251C148.25 134.239 155.288 123.138 155.288 114.457C155.288 112.361 154.877 110.596 154.133 109.196L154.774 108.27L151.502 106.411C151.442 106.375 151.38 106.341 151.318 106.306H151.316C150.199 105.693 148.882 105.378 147.418 105.378Z" fill="#FFE840"/>
<path d="M152.21 132.469C159.148 123.245 160.541 112.585 155.322 108.66C150.104 104.735 140.249 109.031 133.311 118.255C126.373 127.479 124.98 138.139 130.198 142.064C135.417 145.989 145.272 141.693 152.21 132.469Z" fill="#FFD071"/>
<path d="M152.21 132.469C159.148 123.245 160.541 112.585 155.322 108.66C150.104 104.735 140.249 109.031 133.311 118.255C126.373 127.479 124.98 138.139 130.198 142.064C135.417 145.989 145.272 141.693 152.21 132.469Z" fill="#FFE840"/>
<path d="M143.16 139.103C139.492 141.221 136.043 141.783 133.449 140.688C130.855 139.592 129.427 136.968 129.427 133.3C129.427 129.632 130.855 125.359 133.449 121.266C136.043 117.176 139.492 113.754 143.16 111.638C146.829 109.52 150.278 108.958 152.872 110.054C155.466 111.149 156.894 113.773 156.894 117.442C156.894 121.11 155.466 125.382 152.872 129.475C150.278 133.566 146.829 136.985 143.16 139.103ZM143.16 112.393C136.004 116.524 130.184 125.706 130.184 132.862C130.184 140.019 136.004 142.478 143.16 138.346C150.317 134.215 156.137 125.033 156.137 117.877C156.139 110.723 150.317 108.262 143.16 112.393Z" fill="#FF9D4D"/>
<path d="M145.083 123.05V125.142C145.04 125.164 144.995 125.187 144.95 125.213L143.801 125.876V123.92L144.446 123.547C144.678 123.414 144.89 123.247 145.083 123.05Z" fill="#D1975D"/>
<path d="M148.297 123.361C147.873 123.05 147.296 122.996 146.565 123.202C147.163 122.593 147.617 121.929 147.928 121.204C148.239 120.479 148.396 119.806 148.396 119.185C148.396 118.79 148.327 118.438 148.19 118.128C148.053 117.817 147.858 117.583 147.607 117.422C147.356 117.262 147.049 117.191 146.691 117.206C146.331 117.223 145.932 117.358 145.489 117.613L145.083 117.847V115.78L143.801 116.52V118.586L142.241 119.487V117.42L140.959 118.16V120.226L138.669 121.549V134.29L140.959 132.968V135.114L142.241 134.374V132.228L143.801 131.327V133.473L145.083 132.734V130.584C145.549 130.296 145.992 129.97 146.413 129.606C146.908 129.175 147.345 128.714 147.723 128.221C148.1 127.728 148.396 127.216 148.61 126.686C148.824 126.154 148.934 125.62 148.934 125.082C148.934 124.248 148.722 123.674 148.297 123.361ZM141.147 122.242L144.556 120.274C144.747 120.164 144.923 120.096 145.083 120.07C145.257 120.042 145.411 120.061 145.551 120.13C145.821 120.263 145.954 120.574 145.954 121.063C145.954 121.564 145.808 122.044 145.514 122.501C145.384 122.705 145.24 122.889 145.083 123.05C144.89 123.249 144.678 123.414 144.447 123.549L142.241 124.823L141.145 125.455V122.242H141.147ZM146.314 126.776C146.23 127.027 146.117 127.269 145.973 127.503C145.829 127.734 145.658 127.951 145.461 128.148C145.341 128.268 145.214 128.377 145.083 128.472C145 128.534 144.912 128.59 144.824 128.641L143.801 129.233L141.145 130.766V127.411L142.241 126.778L144.95 125.215C144.995 125.19 145.041 125.166 145.083 125.145C145.246 125.065 145.401 125.02 145.542 125.007C145.722 124.994 145.877 125.027 146.01 125.106C146.14 125.185 146.245 125.307 146.325 125.473C146.402 125.638 146.44 125.833 146.44 126.06C146.44 126.285 146.398 126.525 146.314 126.776Z" fill="#FF9D4D"/>
<path d="M144.325 110.056L144.198 110.275L139.754 107.708C139.84 107.659 139.925 107.612 140.009 107.565L144.325 110.056Z" fill="#FFE840"/>
<path d="M140.399 111.745L140.272 111.964L136.574 109.829C136.647 109.773 136.718 109.717 136.791 109.664L140.399 111.745Z" fill="#FFE840"/>
<path d="M137.665 114.125L137.539 114.344L133.834 112.204C133.896 112.144 133.96 112.082 134.023 112.022L137.665 114.125Z" fill="#FFE840"/>
<path d="M134.932 116.505L134.806 116.723L131.436 114.777C131.491 114.71 131.545 114.646 131.601 114.582L134.932 116.505Z" fill="#FFE840"/>
<path d="M133.386 119.573L133.26 119.791L129.328 117.521C129.375 117.452 129.425 117.382 129.474 117.313L133.386 119.573Z" fill="#FFE840"/>
<path d="M132.396 122.977L132.27 123.196L127.506 120.424C127.547 120.351 127.587 120.278 127.63 120.205L132.396 122.977Z" fill="#FFE840"/>
<path d="M130.456 125.794L130.329 126.013L125.971 123.496C126.005 123.419 126.037 123.342 126.074 123.264L130.456 125.794Z" fill="#FFE840"/>
<path d="M129.718 129.327L129.592 129.546L124.772 126.763C124.796 126.68 124.822 126.598 124.847 126.514L129.718 129.327Z" fill="#FFE840"/>
<path d="M128.472 132.567L128.346 132.785L124.009 130.281C124.02 130.191 124.032 130.101 124.045 130.011L128.472 132.567Z" fill="#FFE840"/>
<path d="M128.659 136.631L128.533 136.85L123.938 134.198C123.928 134.097 123.917 133.994 123.908 133.889L128.659 136.631Z" fill="#FFE840"/>
<path d="M148.1 108.272L147.974 108.491L143.649 105.993C143.761 105.959 143.872 105.927 143.982 105.895L148.1 108.272Z" fill="#FFE840"/>
<path d="M81.6678 200C102.192 200 118.83 190.394 118.83 178.544C118.83 166.694 102.192 157.088 81.6678 157.088C61.1438 157.088 44.5059 166.694 44.5059 178.544C44.5059 190.394 61.1438 200 81.6678 200Z" fill="#E3DFEA"/>
<path d="M68.1119 163.509L66.0259 167.081L65.7365 170.981L69.3746 177.35C69.6641 177.789 69.6255 178.42 69.291 178.748C66.9028 181.076 64.7868 181.297 61.9976 179.299L56.2734 170.993L56.8008 168.106L58.9704 165.252L65.0054 161.408L68.1119 163.509Z" fill="#1A142D"/>
<path d="M84.9817 160.992L84.2185 164.343L89.8869 169.709C90.41 170.204 90.2706 171.073 89.6168 171.379C86.2359 172.955 82.4477 171.962 79.1997 170.129L74.7533 167.683C73.78 167.134 73.4434 165.895 74.0029 164.931L76.4855 160.992H84.9817Z" fill="#1A142D"/>
<path d="M86.7467 59.334L93.487 80.5584L93.6349 81.0236C93.8836 81.8061 94.3874 82.4407 95.0241 82.8588L115.125 96.1079C116.291 96.8775 117.895 96.6417 118.705 95.5055C119.484 94.4142 119.286 92.9435 118.322 92.0881L101.803 78.3288L97.0458 56.6971C96.4048 53.7814 93.4784 51.8498 90.5756 52.5465C87.7607 53.2219 85.9942 56.0303 86.6202 58.8688C86.6545 59.021 86.6995 59.184 86.7467 59.334Z" fill="url(#paint0_linear)"/>
<path d="M75.7051 161.091L78.6143 161.039L86.0664 160.909L92.0414 133.551L93.8508 100.334L79.9264 98.6613L76.9786 98.3097L79.9671 132.354C78.7108 136.552 77.7289 140.816 77.0321 145.132C76.329 149.441 75.913 153.802 75.7887 158.177L75.7051 161.091Z" fill="url(#paint1_linear)"/>
<path d="M78.6143 161.037L86.0664 160.907L92.0413 133.549L93.8508 100.331L79.9263 98.6592L82.8806 132.352C81.6243 136.55 80.6424 140.814 79.9456 145.13C79.2424 149.439 78.8265 153.8 78.7022 158.175L78.6143 161.037Z" fill="url(#paint2_linear)"/>
<path d="M57.4326 165.953L67.7639 166.832L67.869 166.513L76.4874 140.222L81.6691 107.357L68.9366 104.493L65.0905 103.627L64.6017 137.8C62.9231 141.85 61.5167 145.989 60.3847 150.206C59.2528 154.423 58.3931 158.72 57.8206 163.063L57.4326 165.953Z" fill="url(#paint3_linear)"/>
<path d="M61.292 165.953L67.8673 166.513L76.4856 140.222L81.6674 107.357L68.9349 104.493L68.4589 137.8C66.7803 141.85 65.3675 145.989 64.2334 150.206C63.1014 154.423 62.2482 158.72 61.6758 163.063L61.292 165.953Z" fill="url(#paint4_linear)"/>
<path d="M90.1533 117.95L92.9039 117.397L94.8934 113.658L89.9925 112.98L88.3739 113.54L86.0928 116.254L90.1533 117.95Z" fill="#FFD0A6"/>
<path d="M87.7605 51.0158L86.8986 51.1573L81.8284 49.2064L70.1293 59.1047C69.5397 59.2376 61.8839 64.4965 59.5686 69.9034C59.1998 70.7652 59.1055 71.7171 59.262 72.6411C59.8687 76.2364 61.7296 87.2644 63.0824 95.2568L62.8337 109.837C63.3053 112.618 65.9937 114.451 68.755 113.87L91.002 109.196C93.4289 108.686 95.1097 106.463 94.9382 103.989L93.5661 84.218C93.3431 81.0108 93.6497 79.1649 94.1149 77.1561C94.9189 73.6959 97.0156 71.9358 96.769 68.3898L96.9748 66.7219C96.8655 65.1461 97.7338 62.1726 97.7616 60.5925C97.7766 59.8143 97.6973 58.9653 97.5601 58.0992C96.8248 53.4406 92.417 50.2526 87.7605 51.0158Z" fill="url(#paint5_linear)"/>
<path d="M88.4483 40.0843L88.2296 46.7046L86.716 53.7043C86.5188 54.6112 85.7406 55.2758 84.8144 55.3272L82.364 55.4602C82.9042 56.575 82.4283 57.917 81.3049 58.4444L81.1741 58.5066C80.5953 58.7767 79.9285 58.7853 79.3411 58.5302L78.7987 58.2944L73.4733 55.994L73.6727 53.4599L72.4828 50.4757L70.0646 40.6417C69.8137 39.6169 69.8952 38.5407 70.2961 37.5653C70.5491 36.9478 70.8814 36.3776 71.2758 35.8609C72.5429 34.1951 74.4659 33.0974 76.6055 32.8938L79.8964 32.5786C80.1343 32.555 80.3744 32.5786 80.6038 32.6451L83.7232 33.5562C86.6024 34.3966 88.5469 37.0829 88.4483 40.0843Z" fill="#FFD0A6"/>
<path d="M88.399 41.5871C88.399 41.5871 88.0281 40.1764 87.3142 40.1207C86.6003 40.0649 84.6773 40.9997 82.0939 40.6159C79.5105 40.2322 78.6272 40.9461 78.0805 42.2088C77.5339 43.4737 76.8543 48.0187 75.48 48.8977C74.1058 49.7767 72.3478 49.8324 71.6597 48.8977C70.9736 47.963 67.8221 40.6695 69.5801 37.7024C71.3381 34.7353 72.1806 31.7489 76.0825 31.4187C79.9843 31.0885 86.9197 33.3267 87.9509 34.2207C88.9071 35.0483 89.904 40.0456 89.3959 41.0897C88.8878 42.1359 88.399 41.5871 88.399 41.5871Z" fill="#89603E"/>
<path d="M75.2961 56.7572C75.86 57.1195 76.4538 57.424 77.0734 57.6662C78.4948 58.2215 79.809 58.1421 81.0481 57.5397C81.8242 57.1624 82.2637 56.3199 82.1565 55.4623L83.6079 55.383L83.7473 56.0304C84.026 57.3296 83.595 58.6824 82.6153 59.5785C82.0322 60.1124 81.2518 60.3761 80.4671 60.2882C79.1679 60.1445 77.3135 59.7779 76.1665 59.5357C75.2382 59.3406 74.3678 58.9225 73.6818 58.2686C73.3238 57.9256 73.0515 57.5483 73.1029 57.2139L73.3731 54.7184L75.2961 56.7572Z" fill="#7B5BAA"/>
<path d="M59.6545 76.6438L64.6218 98.3505L64.7312 98.8243C64.9134 99.6239 65.3658 100.297 65.9639 100.769L84.9736 115.684C86.0906 116.561 87.707 116.365 88.5839 115.248C89.3835 114.23 89.2914 112.796 88.4231 111.887L71.7545 94.395L73.0965 96.8133L70.123 74.7443C69.7307 71.8308 67.0487 69.7855 64.1352 70.1778C61.2217 70.5702 59.1764 73.2522 59.5687 76.1657C59.5902 76.3265 59.6202 76.4916 59.6545 76.6438Z" fill="url(#paint6_linear)"/>
<path d="M88.47 113.004L90.2516 114.305V115.413C90.08 115.422 89.9107 115.371 89.767 115.268L75.9562 105.134C75.2916 104.645 75.0151 103.892 75.0901 103.176L75.2252 101.939L75.5617 102.038C75.7675 101.783 76.0355 101.568 76.37 101.422L90.4209 95.2803L88.47 113.004Z" fill="url(#paint7_linear)"/>
<path d="M124.581 99.3L124.528 99.8017C124.476 100.243 124.195 100.627 123.786 100.807L90.5108 115.351C90.425 115.388 90.335 115.409 90.2471 115.416V114.307L124.581 99.3Z" fill="url(#paint8_linear)"/>
<path d="M124.581 99.3001L90.2493 114.305L88.4678 113.004L90.4165 95.2804L92.4361 94.3971L103.113 89.7299C105.687 88.6043 108.667 88.9345 110.933 90.5981L123.016 99.4673L124.581 99.3001Z" fill="#7B5BAA"/>
<path d="M90.251 114.303L124.585 99.2958L111.07 89.3761C108.804 87.7125 105.824 87.3823 103.249 88.5078L76.5045 100.198C74.9823 100.863 74.7551 102.925 76.0929 103.909L90.251 114.303Z" fill="white"/>
<path d="M88.3731 108.184L115.024 96.4723L106.54 90.2444L79.8877 101.956L88.3731 108.184Z" fill="url(#paint9_linear)"/>
<path d="M93.8594 85.8494C93.4757 86.4968 93.227 87.2279 93.1434 88.004L92.4402 94.3992L90.2513 114.305L88.4697 113.004L90.4185 95.2803L91.3618 86.7027C91.4497 85.9244 91.6984 85.1912 92.0843 84.5416L93.8594 85.8494Z" fill="url(#paint10_linear)"/>
<path d="M92.084 84.5395L93.857 85.8472C94.4251 84.8846 95.2869 84.1021 96.3481 83.639L124.922 71.1531C125.567 70.8701 126.244 70.9923 126.742 71.3611L124.96 70.0598C124.463 69.6932 123.788 69.5731 123.142 69.8539L94.5709 82.3399C93.5139 82.8029 92.6521 83.579 92.084 84.5395Z" fill="url(#paint11_linear)"/>
<path d="M93.1412 88.0019L90.4893 112.12L122.804 97.9988L125.659 72.043L125.668 72.073L126.746 71.3655C126.744 71.3655 126.742 71.3633 126.742 71.3633C126.245 70.9967 125.567 70.8745 124.922 71.1554L96.3485 83.6413C95.2894 84.1044 94.4254 84.8869 93.8573 85.8495C93.4757 86.4991 93.227 87.228 93.1412 88.0019Z" fill="#00CBFC"/>
<path d="M127.471 73.0333L124.581 99.3001L90.249 114.305L92.4379 94.3992L93.1411 88.004C93.2269 87.2279 93.4734 86.499 93.8572 85.8494C94.4232 84.8868 95.285 84.1043 96.3462 83.6412L124.922 71.1553C125.567 70.8723 126.245 70.9945 126.742 71.3611C126.742 71.3611 126.742 71.3633 126.744 71.3633C127.237 71.7299 127.548 72.3387 127.471 73.0333Z" fill="url(#paint12_linear)"/>
<defs>
<linearGradient id="paint0_linear" x1="86.4951" y1="74.478" x2="119.186" y2="74.478" gradientUnits="userSpaceOnUse">
<stop stop-color="#6A5EBF"/>
<stop offset="1" stop-color="#6E3AA5"/>
</linearGradient>
<linearGradient id="paint1_linear" x1="75.7041" y1="129.699" x2="93.8521" y2="129.699" gradientUnits="userSpaceOnUse">
<stop stop-color="#2E256B"/>
<stop offset="1" stop-color="#5A3087"/>
</linearGradient>
<linearGradient id="paint2_linear" x1="78.6137" y1="129.848" x2="93.852" y2="129.848" gradientUnits="userSpaceOnUse">
<stop stop-color="#6A5EBF"/>
<stop offset="1" stop-color="#6E3AA5"/>
</linearGradient>
<linearGradient id="paint3_linear" x1="57.4322" y1="135.228" x2="81.6664" y2="135.228" gradientUnits="userSpaceOnUse">
<stop stop-color="#2E256B"/>
<stop offset="1" stop-color="#5A3087"/>
</linearGradient>
<linearGradient id="paint4_linear" x1="61.2927" y1="135.502" x2="81.6669" y2="135.502" gradientUnits="userSpaceOnUse">
<stop stop-color="#6A5EBF"/>
<stop offset="1" stop-color="#6E3AA5"/>
</linearGradient>
<linearGradient id="paint5_linear" x1="59.1892" y1="81.5924" x2="97.7631" y2="81.5924" gradientUnits="userSpaceOnUse">
<stop stop-color="#2E256B"/>
<stop offset="1" stop-color="#5A3087"/>
</linearGradient>
<linearGradient id="paint6_linear" x1="59.5204" y1="93.1832" x2="89.1352" y2="93.1832" gradientUnits="userSpaceOnUse">
<stop stop-color="#6A5EBF"/>
<stop offset="1" stop-color="#6E3AA5"/>
</linearGradient>
<linearGradient id="paint7_linear" x1="75.0765" y1="105.347" x2="90.418" y2="105.347" gradientUnits="userSpaceOnUse">
<stop stop-color="#483CA6"/>
<stop offset="1" stop-color="#59278F"/>
</linearGradient>
<linearGradient id="paint8_linear" x1="90.2499" y1="107.357" x2="124.582" y2="107.357" gradientUnits="userSpaceOnUse">
<stop stop-color="#2E256B"/>
<stop offset="1" stop-color="#5A3087"/>
</linearGradient>
<linearGradient id="paint9_linear" x1="79.8877" y1="99.2141" x2="115.025" y2="99.2141" gradientUnits="userSpaceOnUse">
<stop stop-color="#7FC1E2"/>
<stop offset="1" stop-color="#304D87"/>
</linearGradient>
<linearGradient id="paint10_linear" x1="88.4691" y1="99.4227" x2="93.859" y2="99.4227" gradientUnits="userSpaceOnUse">
<stop stop-color="#483CA6"/>
<stop offset="1" stop-color="#59278F"/>
</linearGradient>
<linearGradient id="paint11_linear" x1="92.0842" y1="77.775" x2="126.743" y2="77.775" gradientUnits="userSpaceOnUse">
<stop stop-color="#6A5EBF"/>
<stop offset="1" stop-color="#6E3AA5"/>
</linearGradient>
<linearGradient id="paint12_linear" x1="90.2497" y1="92.6531" x2="127.483" y2="92.6531" gradientUnits="userSpaceOnUse">
<stop stop-color="#2E256B"/>
<stop offset="1" stop-color="#5A3087"/>
</linearGradient>
</defs>
</svg>
